%TF.GenerationSoftware,Altium Limited,Altium Designer,26.4.1 (12)*%
G04 Layer_Color=8388736*
%FSLAX45Y45*%
%MOMM*%
%TF.SameCoordinates,1FFA2065-3418-4F96-B31F-B0DFC3EC218E*%
%TF.FilePolarity,Negative*%
%TF.FileFunction,Soldermask,Top*%
%TF.Part,Single*%
G01*
G75*
%TA.AperFunction,SMDPad,CuDef*%
%ADD23R,1.35320X0.80320*%
%ADD24R,1.00320X1.00320*%
%ADD25R,1.10320X1.00320*%
%TA.AperFunction,ComponentPad*%
%ADD26R,1.55320X1.55320*%
%ADD27C,1.55320*%
%ADD28C,4.01320*%
%TA.AperFunction,ViaPad*%
%ADD29C,1.05320*%
D23*
X5032800Y4088600D02*
D03*
X5257800Y4183600D02*
D03*
Y3993600D02*
D03*
X3820900Y3136900D02*
D03*
X3595900Y3041900D02*
D03*
Y3231900D02*
D03*
D24*
X3619500Y4654400D02*
D03*
Y4794400D02*
D03*
X5702300Y4654400D02*
D03*
Y4794400D02*
D03*
D25*
X4991100Y5308600D02*
D03*
Y5166360D02*
D03*
X4330700Y5308600D02*
D03*
Y5166360D02*
D03*
X3619500Y5308600D02*
D03*
Y5166360D02*
D03*
X5702300Y5308600D02*
D03*
Y5166360D02*
D03*
D26*
X5662800Y3186900D02*
D03*
X3989200Y4038600D02*
D03*
D27*
X5487800Y3186900D02*
D03*
X4164200Y4038600D02*
D03*
D28*
X4419600Y6032500D02*
D03*
X4927600D02*
D03*
D29*
X3746500Y4038600D02*
D03*
X4864100Y4089400D02*
D03*
X3416300Y3035300D02*
D03*
%TF.MD5,66550cd8858f3c3aa6ef1ff61a34587f*%
M02*
