%TF.GenerationSoftware,Altium Limited,Altium Designer,26.5.0 (11)*%
G04 Layer_Color=8388736*
G04 Board_Origin=10078740|12928740*
%FSLAX45Y45*%
%MOMM*%
%TF.SameCoordinates,5994FA3D-4564-4C55-8066-6C7771445305*%
%TF.FilePolarity,Negative*%
%TF.FileFunction,Soldermask,Top*%
%TF.Part,Single*%
G01*
G75*
%TA.AperFunction,SMDPad,CuDef*%
%ADD25R,1.35320X0.80320*%
%ADD26R,0.80320X1.35320*%
%ADD27R,1.00320X1.00320*%
%ADD28R,1.00320X1.10320*%
%TA.AperFunction,ComponentPad*%
%ADD29C,4.01320*%
%ADD30R,1.55320X1.55320*%
%ADD31C,1.55320*%
%ADD32R,1.55320X1.55320*%
%TA.AperFunction,ViaPad*%
%ADD33C,1.05320*%
D25*
X3252998Y1637101D02*
D03*
X3028000Y1542100D02*
D03*
Y1732102D02*
D03*
D26*
X2786700Y816402D02*
D03*
X2881701Y591403D02*
D03*
X2691699D02*
D03*
D27*
X2583500Y2125995D02*
D03*
Y2266000D02*
D03*
X3688400Y1605295D02*
D03*
Y1745300D02*
D03*
D28*
X2885760Y2278700D02*
D03*
X3028000D02*
D03*
X3294700D02*
D03*
X1577660Y1732600D02*
D03*
X1643700Y729300D02*
D03*
X1719900Y1732600D02*
D03*
X1785940Y729300D02*
D03*
X3436940Y2278700D02*
D03*
D29*
X393700Y1498600D02*
D03*
Y990600D02*
D03*
D30*
X2266000Y1894901D02*
D03*
D31*
Y1719900D02*
D03*
X2191202Y729300D02*
D03*
D32*
X2366198D02*
D03*
D33*
X3116900Y538800D02*
D03*
X754700Y1008700D02*
D03*
%TF.MD5,960533f950b037fe21a74a120d9e2d8e*%
M02*
