%TF.GenerationSoftware,Altium Limited,Altium Designer,25.3.3 (18)*%
G04 Layer_Color=8388736*
%FSLAX45Y45*%
%MOMM*%
%TF.SameCoordinates,3210E5F4-82A1-4EA3-A5C3-5EE3B0FA2F8C*%
%TF.FilePolarity,Negative*%
%TF.FileFunction,Soldermask,Top*%
%TF.Part,Single*%
G01*
G75*
%TA.AperFunction,SMDPad,CuDef*%
%ADD24R,0.80320X1.35320*%
%ADD25R,1.00320X1.00320*%
%ADD26R,1.10320X1.00320*%
%TA.AperFunction,ComponentPad*%
%ADD27R,1.55320X1.55320*%
%ADD28C,1.55320*%
%ADD29C,4.01320*%
%TA.AperFunction,ViaPad*%
%ADD30C,1.05320*%
D24*
X2844800Y1524000D02*
D03*
X2939800Y1299000D02*
D03*
X2749800D02*
D03*
X990600Y1534900D02*
D03*
X1085600Y1309900D02*
D03*
X895600D02*
D03*
D25*
X990600Y2063600D02*
D03*
Y2203600D02*
D03*
X2844800Y2050900D02*
D03*
Y2190900D02*
D03*
D26*
X2844800Y2573020D02*
D03*
Y2430780D02*
D03*
X2286000Y2573020D02*
D03*
Y2430780D02*
D03*
X1600200Y2573020D02*
D03*
Y2430780D02*
D03*
X990600Y2573020D02*
D03*
Y2430780D02*
D03*
D27*
X2461000Y1943100D02*
D03*
X1411100D02*
D03*
D28*
X2286000D02*
D03*
X1586100D02*
D03*
D29*
X2108200Y3505200D02*
D03*
X1600200D02*
D03*
D30*
X2971800Y1003300D02*
D03*
X901700Y876300D02*
D03*
X1193800Y1054100D02*
D03*
X1104900Y3505200D02*
D03*
X2286000Y1638300D02*
D03*
%TF.MD5,c9da654dcc68b58eeb09f89d370bb7b8*%
M02*
