%TF.GenerationSoftware,Altium Limited,Altium Designer,25.7.1 (20)*%
G04 Layer_Physical_Order=2*
G04 Layer_Color=16711680*
%FSLAX45Y45*%
%MOMM*%
%TF.SameCoordinates,47FC15D1-0E18-4774-B64B-8D594204C2FA*%
%TF.FilePolarity,Positive*%
%TF.FileFunction,Copper,L2,Bot,Signal*%
%TF.Part,Single*%
G01*
G75*
%TA.AperFunction,Conductor*%
%ADD15C,0.25400*%
%TA.AperFunction,ComponentPad*%
%ADD16C,3.81000*%
%ADD17R,1.35000X1.35000*%
%ADD18C,1.35000*%
%TA.AperFunction,ViaPad*%
%ADD19C,0.85000*%
G36*
X6527800Y2540000D02*
X2540000D01*
Y6527800D01*
X6527800D01*
Y2540000D01*
D02*
G37*
%LPC*%
G36*
X4445000Y5667592D02*
Y5613400D01*
X4499192D01*
X4495573Y5626908D01*
X4486634Y5642392D01*
X4473992Y5655034D01*
X4458508Y5663973D01*
X4445000Y5667592D01*
D02*
G37*
G36*
X4419600D02*
X4406092Y5663973D01*
X4390608Y5655034D01*
X4377966Y5642392D01*
X4369027Y5626908D01*
X4365408Y5613400D01*
X4419600D01*
Y5667592D01*
D02*
G37*
G36*
X4499192Y5588000D02*
X4445000D01*
Y5533808D01*
X4458508Y5537427D01*
X4473992Y5546366D01*
X4486634Y5559008D01*
X4495573Y5574492D01*
X4499192Y5588000D01*
D02*
G37*
G36*
X4419600D02*
X4365408D01*
X4369027Y5574492D01*
X4377966Y5559008D01*
X4390608Y5546366D01*
X4406092Y5537427D01*
X4419600Y5533808D01*
Y5588000D01*
D02*
G37*
G36*
X4521200Y4676992D02*
Y4622800D01*
X4575392D01*
X4571773Y4636308D01*
X4562834Y4651792D01*
X4550192Y4664434D01*
X4534708Y4673373D01*
X4521200Y4676992D01*
D02*
G37*
G36*
X4495800D02*
X4482292Y4673373D01*
X4466808Y4664434D01*
X4454166Y4651792D01*
X4445227Y4636308D01*
X4441608Y4622800D01*
X4495800D01*
Y4676992D01*
D02*
G37*
G36*
X4575392Y4597400D02*
X4521200D01*
Y4543208D01*
X4534708Y4546827D01*
X4550192Y4555766D01*
X4562834Y4568408D01*
X4571773Y4583892D01*
X4575392Y4597400D01*
D02*
G37*
G36*
X4495800D02*
X4441608D01*
X4445227Y4583892D01*
X4454166Y4568408D01*
X4466808Y4555766D01*
X4482292Y4546827D01*
X4495800Y4543208D01*
Y4597400D01*
D02*
G37*
G36*
X5463600Y4372800D02*
X5277800D01*
Y4365102D01*
X5252742Y4354238D01*
X5231558Y4366469D01*
X5207931Y4372800D01*
X5183469D01*
X5159842Y4366469D01*
X5138658Y4354238D01*
X5121362Y4336942D01*
X5109131Y4315758D01*
X5102800Y4292131D01*
Y4267669D01*
X5109131Y4244042D01*
X5121362Y4222858D01*
X5138658Y4205562D01*
X5159842Y4193331D01*
X5183469Y4187000D01*
X5207931D01*
X5231558Y4193331D01*
X5252742Y4205562D01*
X5277800Y4194698D01*
Y4187000D01*
X5463600D01*
Y4372800D01*
D02*
G37*
G36*
X5084000Y3788600D02*
X4898200D01*
Y3780902D01*
X4873142Y3770038D01*
X4851958Y3782269D01*
X4828331Y3788600D01*
X4803869D01*
X4780242Y3782269D01*
X4759058Y3770038D01*
X4741762Y3752742D01*
X4729531Y3731558D01*
X4723200Y3707931D01*
Y3683469D01*
X4729531Y3659842D01*
X4741762Y3638658D01*
X4759058Y3621362D01*
X4780242Y3609131D01*
X4803869Y3602800D01*
X4828331D01*
X4851958Y3609131D01*
X4873142Y3621362D01*
X4898200Y3610498D01*
Y3602800D01*
X5084000D01*
Y3788600D01*
D02*
G37*
G36*
X5317539Y4868500D02*
X5299661D01*
X5282392Y4863873D01*
X5266908Y4854934D01*
X5254266Y4842292D01*
X5245327Y4826808D01*
X5240700Y4809539D01*
Y4791661D01*
X5245327Y4774392D01*
X5254266Y4758908D01*
X5266908Y4746266D01*
X5282392Y4737327D01*
X5299661Y4732700D01*
X5317539D01*
X5320712Y4733550D01*
X5815853Y4238409D01*
Y3789776D01*
X5813008Y3788134D01*
X5800366Y3775492D01*
X5791427Y3760008D01*
X5786800Y3742739D01*
Y3724861D01*
X5791427Y3707592D01*
X5800366Y3692108D01*
X5813008Y3679466D01*
X5828492Y3670527D01*
X5845761Y3665900D01*
X5863639D01*
X5880908Y3670527D01*
X5896392Y3679466D01*
X5909034Y3692108D01*
X5917973Y3707592D01*
X5922600Y3724861D01*
Y3742739D01*
X5917973Y3760008D01*
X5909034Y3775492D01*
X5896392Y3788134D01*
X5893547Y3789776D01*
Y4254500D01*
X5890589Y4269366D01*
X5882169Y4281969D01*
X5375650Y4788488D01*
X5376500Y4791661D01*
Y4809539D01*
X5371873Y4826808D01*
X5362934Y4842292D01*
X5350292Y4854934D01*
X5334808Y4863873D01*
X5317539Y4868500D01*
D02*
G37*
G36*
X4174164Y3556000D02*
X4165600D01*
Y3352800D01*
X4368800D01*
Y3361364D01*
X4360503Y3403076D01*
X4344228Y3442367D01*
X4320600Y3477728D01*
X4290528Y3507800D01*
X4255167Y3531428D01*
X4215876Y3547703D01*
X4174164Y3556000D01*
D02*
G37*
G36*
X4140200D02*
X4131636D01*
X4089924Y3547703D01*
X4050633Y3531428D01*
X4015272Y3507800D01*
X3985200Y3477728D01*
X3961572Y3442367D01*
X3945297Y3403076D01*
X3937000Y3361364D01*
Y3352800D01*
X4140200D01*
Y3556000D01*
D02*
G37*
G36*
X4368800Y3327400D02*
X4165600D01*
Y3124200D01*
X4174164D01*
X4215876Y3132497D01*
X4255167Y3148772D01*
X4290528Y3172400D01*
X4320600Y3202472D01*
X4344228Y3237833D01*
X4360503Y3277124D01*
X4368800Y3318836D01*
Y3327400D01*
D02*
G37*
G36*
X4140200D02*
X3937000D01*
Y3318836D01*
X3945297Y3277124D01*
X3961572Y3237833D01*
X3985200Y3202472D01*
X4015272Y3172400D01*
X4050633Y3148772D01*
X4089924Y3132497D01*
X4131636Y3124200D01*
X4140200D01*
Y3327400D01*
D02*
G37*
G36*
X3666164Y3556000D02*
X3623636D01*
X3581924Y3547703D01*
X3542633Y3531428D01*
X3507272Y3507800D01*
X3477200Y3477728D01*
X3453572Y3442367D01*
X3437297Y3403076D01*
X3429000Y3361364D01*
Y3318836D01*
X3437297Y3277124D01*
X3453572Y3237833D01*
X3477200Y3202472D01*
X3507272Y3172400D01*
X3542633Y3148772D01*
X3581924Y3132497D01*
X3623636Y3124200D01*
X3666164D01*
X3707876Y3132497D01*
X3747167Y3148772D01*
X3782528Y3172400D01*
X3812600Y3202472D01*
X3836228Y3237833D01*
X3852503Y3277124D01*
X3860800Y3318836D01*
Y3361364D01*
X3852503Y3403076D01*
X3836228Y3442367D01*
X3812600Y3477728D01*
X3782528Y3507800D01*
X3747167Y3531428D01*
X3707876Y3547703D01*
X3666164Y3556000D01*
D02*
G37*
%LPD*%
D15*
X5854700Y3733800D02*
Y4254500D01*
X5308600Y4800600D02*
X5854700Y4254500D01*
D16*
X3644900Y3340100D02*
D03*
X4152900D02*
D03*
D17*
X4991100Y3695700D02*
D03*
X5370700Y4279900D02*
D03*
D18*
X4816100Y3695700D02*
D03*
X5195700Y4279900D02*
D03*
D19*
X4432300Y5600700D02*
D03*
X4508500Y4610100D02*
D03*
X5308600Y4800600D02*
D03*
X5854700Y3733800D02*
D03*
%TF.MD5,602b72bb12830400ae5845af7e41830d*%
M02*
