%TF.GenerationSoftware,Altium Limited,Altium Designer,26.5.0 (11)*%
G04 Layer_Physical_Order=1*
G04 Layer_Color=255*
G04 Board_Origin=10078740|12928740*
%FSLAX45Y45*%
%MOMM*%
%TF.SameCoordinates,5994FA3D-4564-4C55-8066-6C7771445305*%
%TF.FilePolarity,Positive*%
%TF.FileFunction,Copper,L1,Top,Signal*%
%TF.Part,Single*%
G01*
G75*
%TA.AperFunction,SMDPad,CuDef*%
%ADD10R,1.15000X0.60000*%
%ADD11R,0.60000X1.15000*%
%ADD12R,0.80000X0.80000*%
%ADD13R,0.80000X0.90000*%
%TA.AperFunction,Conductor*%
%ADD14C,0.25400*%
%TA.AperFunction,ComponentPad*%
%ADD15C,3.81000*%
%ADD16R,1.35000X1.35000*%
%ADD17C,1.35000*%
%ADD18R,1.35000X1.35000*%
%TA.AperFunction,ViaPad*%
%ADD19C,0.85000*%
G36*
X3937000Y0D02*
X0D01*
Y3162300D01*
X3937000D01*
Y0D01*
D02*
G37*
%LPC*%
G36*
X3116900Y2406447D02*
X1707200D01*
X1692334Y2403489D01*
X1679731Y2395069D01*
X1550191Y2265529D01*
X1541771Y2252926D01*
X1538814Y2238060D01*
Y1803000D01*
X1512260D01*
Y1771447D01*
X564200D01*
X549334Y1768489D01*
X536731Y1760069D01*
X475195Y1698532D01*
X456676Y1706203D01*
X414964Y1714500D01*
X372436D01*
X330724Y1706203D01*
X291433Y1689928D01*
X256072Y1666300D01*
X226000Y1636228D01*
X202372Y1600867D01*
X186097Y1561576D01*
X177800Y1519864D01*
Y1477336D01*
X186097Y1435624D01*
X202372Y1396333D01*
X226000Y1360972D01*
X256072Y1330900D01*
X291433Y1307272D01*
X330724Y1290997D01*
X372436Y1282700D01*
X414964D01*
X456676Y1290997D01*
X495967Y1307272D01*
X531328Y1330900D01*
X561400Y1360972D01*
X585028Y1396333D01*
X601303Y1435624D01*
X609600Y1477336D01*
Y1519864D01*
X601303Y1561576D01*
X585028Y1600867D01*
X561400Y1636228D01*
X542083Y1655546D01*
X580291Y1693754D01*
X1512260D01*
Y1662200D01*
X1538814D01*
Y729300D01*
X1539005Y728339D01*
X1538862Y727371D01*
X1540477Y720939D01*
X1541771Y714434D01*
X1542314Y713620D01*
X1542553Y712670D01*
X1546508Y707344D01*
X1550191Y701831D01*
X1551005Y701288D01*
X1551589Y700501D01*
X1557282Y697094D01*
X1562794Y693411D01*
X1563754Y693220D01*
X1564595Y692717D01*
X1578300Y687822D01*
Y658900D01*
X1695140D01*
X1709100Y658900D01*
X1734500Y658900D01*
X1851340D01*
Y690454D01*
X2106358D01*
X2116864Y672258D01*
X2134160Y654962D01*
X2155344Y642731D01*
X2160841Y641258D01*
X2163734Y636929D01*
X2238531Y562131D01*
X2251134Y553711D01*
X2266000Y550754D01*
X2636299D01*
Y508503D01*
X2747099D01*
Y649814D01*
X2821782D01*
X2826301Y646105D01*
Y604103D01*
X2881701D01*
Y591403D01*
X2894401D01*
Y508503D01*
X2895248D01*
X2899001Y507757D01*
X3056418D01*
X3062566Y497108D01*
X3075208Y484466D01*
X3090692Y475527D01*
X3104200Y471908D01*
Y538800D01*
Y605692D01*
X3090692Y602073D01*
X3075208Y593134D01*
X3067525Y585450D01*
X2937101D01*
Y670464D01*
X3055469Y788832D01*
X3063889Y801434D01*
X3066847Y816300D01*
Y1486700D01*
X3110900D01*
Y1529400D01*
X3028000D01*
Y1554800D01*
X3110900D01*
Y1571834D01*
X3174299D01*
X3189165Y1574791D01*
X3199507Y1581701D01*
X3335898D01*
Y1598255D01*
X3438629D01*
X3459057Y1577827D01*
X3471660Y1569406D01*
X3486526Y1566449D01*
X3623000D01*
Y1539895D01*
X3753800D01*
Y1654500D01*
X3753800Y1670695D01*
X3753800Y1696095D01*
Y1810700D01*
X3677938D01*
X3475787Y2012851D01*
Y2208300D01*
X3502340D01*
Y2349100D01*
X3385500D01*
X3371540Y2349100D01*
X3346140Y2349100D01*
X3229300D01*
Y2346058D01*
X3203900Y2335537D01*
X3144369Y2395069D01*
X3131766Y2403489D01*
X3116900Y2406447D01*
D02*
G37*
G36*
X767400Y1075592D02*
Y1021400D01*
X821592D01*
X817973Y1034909D01*
X809034Y1050392D01*
X796392Y1063034D01*
X780909Y1071973D01*
X767400Y1075592D01*
D02*
G37*
G36*
X381000Y1206500D02*
X372436D01*
X330724Y1198203D01*
X291433Y1181928D01*
X256072Y1158300D01*
X226000Y1128228D01*
X202372Y1092867D01*
X186097Y1053576D01*
X177800Y1011864D01*
Y1003300D01*
X381000D01*
Y1206500D01*
D02*
G37*
G36*
X821592Y996000D02*
X767400D01*
Y941808D01*
X780909Y945427D01*
X796392Y954366D01*
X809034Y967008D01*
X817973Y982492D01*
X821592Y996000D01*
D02*
G37*
G36*
X414964Y1206500D02*
X406400D01*
Y990600D01*
Y774700D01*
X414964D01*
X456676Y782997D01*
X495967Y799272D01*
X531328Y822900D01*
X561400Y852972D01*
X585028Y888333D01*
X601303Y927624D01*
X609600Y969336D01*
Y969854D01*
X698724D01*
X700366Y967008D01*
X713008Y954366D01*
X728492Y945427D01*
X742000Y941808D01*
Y1008700D01*
Y1075592D01*
X728492Y1071973D01*
X713008Y1063034D01*
X700366Y1050392D01*
X698724Y1047547D01*
X602502D01*
X601303Y1053576D01*
X585028Y1092867D01*
X561400Y1128228D01*
X531328Y1158300D01*
X495967Y1181928D01*
X456676Y1198203D01*
X414964Y1206500D01*
D02*
G37*
G36*
X381000Y977900D02*
X177800D01*
Y969336D01*
X186097Y927624D01*
X202372Y888333D01*
X226000Y852972D01*
X256072Y822900D01*
X291433Y799272D01*
X330724Y782997D01*
X372436Y774700D01*
X381000D01*
Y977900D01*
D02*
G37*
G36*
X3129600Y605692D02*
Y551500D01*
X3183792D01*
X3180173Y565009D01*
X3171234Y580492D01*
X3158592Y593134D01*
X3143109Y602073D01*
X3129600Y605692D01*
D02*
G37*
G36*
X2869001Y578703D02*
X2826301D01*
Y508503D01*
X2869001D01*
Y578703D01*
D02*
G37*
G36*
X3183792Y526100D02*
X3129600D01*
Y471908D01*
X3143109Y475527D01*
X3158592Y484466D01*
X3171234Y497108D01*
X3180173Y512592D01*
X3183792Y526100D01*
D02*
G37*
%LPD*%
G36*
X3085674Y1983209D02*
Y1787502D01*
X2945100D01*
Y1770949D01*
X2659202D01*
X2644336Y1767992D01*
X2631734Y1759571D01*
X2630909Y1758747D01*
X2355281D01*
X2341846Y1780420D01*
X2351201Y1802001D01*
X2358900D01*
Y1932864D01*
X2495848Y2069812D01*
X2518100Y2060595D01*
Y2060595D01*
X2648900D01*
Y2106351D01*
X2962532D01*
X3085674Y1983209D01*
D02*
G37*
G36*
X2518100Y2207609D02*
X2517506Y2199841D01*
X2503090Y2181417D01*
X2501431Y2181087D01*
X2488828Y2172666D01*
X2303963Y1987801D01*
X2173100D01*
Y1802001D01*
X2180799D01*
X2190154Y1780420D01*
X2176719Y1758747D01*
X2005248D01*
X1785300Y1768566D01*
Y1803000D01*
X1668460D01*
X1654500Y1803000D01*
X1634467Y1803000D01*
X1616507Y1820961D01*
Y2221969D01*
X1723291Y2328754D01*
X2518100D01*
X2518100Y2207609D01*
D02*
G37*
G36*
X3229300Y2208300D02*
X3346140D01*
X3360100Y2208300D01*
X3380133Y2208300D01*
X3398094Y2190340D01*
Y1996760D01*
X3401051Y1981894D01*
X3409471Y1969291D01*
X3623000Y1755763D01*
Y1696095D01*
X3623000Y1679900D01*
Y1662102D01*
X3605040Y1644142D01*
X3502617D01*
X3482189Y1664570D01*
X3469586Y1672991D01*
X3454720Y1675948D01*
X3335898D01*
Y1692501D01*
X3170099D01*
X3163367Y1715113D01*
Y1999300D01*
X3160409Y2014166D01*
X3151989Y2026769D01*
X3006091Y2172666D01*
X2993488Y2181087D01*
X2984374Y2182900D01*
X2986876Y2208300D01*
X3093400D01*
Y2239854D01*
X3229300D01*
Y2208300D01*
D02*
G37*
G36*
X2818987Y1667856D02*
X2759231Y1608100D01*
X2750811Y1595498D01*
X2747854Y1580632D01*
Y899302D01*
X2731300D01*
Y766338D01*
X2705900Y755817D01*
X2704949Y756769D01*
X2692346Y765189D01*
X2677480Y768147D01*
X2459098D01*
Y822200D01*
X2273298D01*
Y814506D01*
X2248244Y803638D01*
X2227060Y815869D01*
X2203433Y822200D01*
X2178972D01*
X2155344Y815869D01*
X2134160Y803638D01*
X2116864Y786342D01*
X2106358Y768147D01*
X1851340D01*
Y799700D01*
X1734500D01*
X1720540Y799700D01*
X1695140Y799700D01*
X1616507D01*
Y1644239D01*
X1634467Y1662200D01*
X1643060D01*
X1668460Y1662200D01*
X1785300D01*
Y1672420D01*
X1803657Y1689976D01*
X2002648Y1681092D01*
X2003517Y1681225D01*
X2004380Y1681054D01*
X2181156D01*
X2191662Y1662858D01*
X2208958Y1645562D01*
X2230142Y1633331D01*
X2253769Y1627000D01*
X2278231D01*
X2301858Y1633331D01*
X2323042Y1645562D01*
X2340338Y1662858D01*
X2350844Y1681054D01*
X2647000D01*
X2661866Y1684011D01*
X2674469Y1692431D01*
X2675293Y1693256D01*
X2808466D01*
X2818987Y1667856D01*
D02*
G37*
G36*
X2945100Y1533636D02*
Y1486700D01*
X2989154D01*
Y832391D01*
X2917116Y760353D01*
X2893649Y770073D01*
Y1515372D01*
X2921633Y1543356D01*
X2945100Y1533636D01*
D02*
G37*
D10*
X3252998Y1637101D02*
D03*
X3028000Y1542100D02*
D03*
Y1732102D02*
D03*
D11*
X2786700Y816402D02*
D03*
X2881701Y591403D02*
D03*
X2691699D02*
D03*
D12*
X2583500Y2125995D02*
D03*
Y2266000D02*
D03*
X3688400Y1605295D02*
D03*
Y1745300D02*
D03*
D13*
X2885760Y2278700D02*
D03*
X3028000D02*
D03*
X3294700D02*
D03*
X1577660Y1732600D02*
D03*
X1643700Y729300D02*
D03*
X1719900Y1732600D02*
D03*
X1785940Y729300D02*
D03*
X3436940Y2278700D02*
D03*
D14*
X2596200D02*
X2885760D01*
X2583500Y2266000D02*
X2596200Y2278700D01*
X3124520Y1661480D02*
Y1999300D01*
X2867548Y1661480D02*
X3124520D01*
X2978622Y2145198D02*
X3124520Y1999300D01*
X2786700Y1580632D02*
X2867548Y1661480D01*
X2786700Y816402D02*
Y1580632D01*
X2583500Y2145198D02*
X2978622D01*
X2516297D02*
X2583500D01*
X2266000Y1894901D02*
X2516297Y2145198D01*
X3116900Y2367600D02*
X3205800Y2278700D01*
X1707200Y2367600D02*
X3116900D01*
X3205800Y2278700D02*
X3294700D01*
X3028000D02*
X3205800D01*
X2881701Y563903D02*
Y591403D01*
Y563903D02*
X2899001Y546603D01*
X3109097D01*
X3116900Y538800D01*
X348300Y1008700D02*
X754700D01*
X1785940Y729300D02*
X2191202D01*
X2266000Y589600D02*
X2691699D01*
X1577660Y729300D02*
X1648780Y703900D01*
X1577660Y729300D02*
Y1732600D01*
X3028000Y816300D02*
Y1542100D01*
X2881701Y670001D02*
X3028000Y816300D01*
X2881701Y591403D02*
Y670001D01*
X2004380Y1719900D02*
X2266000D01*
X1719900Y1732600D02*
X2004380Y1719900D01*
X2366198Y729300D02*
X2677480D01*
X2718120Y688660D01*
X2821783D01*
X2854803Y721680D01*
Y1531463D01*
X2934020Y1610680D01*
X3174299D01*
X3200720Y1637101D01*
X3252998D01*
X2691699Y589600D02*
Y591403D01*
X2191202Y664398D02*
X2266000Y589600D01*
X2191202Y664398D02*
Y729300D01*
X1577660Y2238060D02*
X1707200Y2367600D01*
X1577660Y1732600D02*
Y2238060D01*
X3436940Y1996760D02*
Y2278700D01*
Y1996760D02*
X3688400Y1745300D01*
X564200Y1732600D02*
X1577660D01*
X348300Y1516700D02*
X564200Y1732600D01*
X3486526Y1605295D02*
X3688400D01*
X3454720Y1637101D02*
X3486526Y1605295D01*
X3252998Y1637101D02*
X3454720D01*
X2266000Y1719900D02*
X2647000D01*
X2659202Y1732102D01*
X3028000D01*
D15*
X393700Y1498600D02*
D03*
Y990600D02*
D03*
D16*
X2266000Y1894901D02*
D03*
D17*
Y1719900D02*
D03*
X2191202Y729300D02*
D03*
D18*
X2366198D02*
D03*
D19*
X3116900Y538800D02*
D03*
X754700Y1008700D02*
D03*
%TF.MD5,8395b34e5f2bf1562f9a9b2f9a6c450c*%
M02*
