%TF.GenerationSoftware,Altium Limited,Altium Designer,25.3.3 (18)*%
G04 Layer_Color=65535*
%FSLAX45Y45*%
%MOMM*%
%TF.SameCoordinates,3210E5F4-82A1-4EA3-A5C3-5EE3B0FA2F8C*%
%TF.FilePolarity,Positive*%
%TF.FileFunction,Legend,Top*%
%TF.Part,Single*%
G01*
G75*
%TA.AperFunction,NonConductor*%
%ADD19C,0.20000*%
%ADD20C,0.25000*%
%ADD21C,0.25400*%
%ADD22C,0.10000*%
%ADD23C,0.15240*%
D19*
X2542151Y2050601D02*
G03*
X2191611Y2026267I-168652J-107501D01*
G01*
Y1859933D02*
G03*
X2542151Y1835599I181888J83167D01*
G01*
X1329949Y1835599D02*
G03*
X1680489Y1859933I168652J107501D01*
G01*
Y2026267D02*
G03*
X1329949Y2050601I-181888J-83167D01*
G01*
X2914800Y1481500D02*
X2994800D01*
Y1391500D02*
Y1481500D01*
X2694800D02*
X2774800D01*
X2694800Y1391500D02*
Y1481500D01*
X1060600Y1492400D02*
X1140600D01*
Y1402400D02*
Y1492400D01*
X840600D02*
X920600D01*
X840600Y1402400D02*
Y1492400D01*
D20*
X2772300Y1546500D02*
G03*
X2772300Y1546500I-12500J0D01*
G01*
X918100Y1557400D02*
G03*
X918100Y1557400I-12500J0D01*
G01*
D21*
X2362200Y3060700D02*
Y3886200D01*
X1346200D02*
X2362200D01*
X1346200Y3060700D02*
Y3886200D01*
Y3060700D02*
X2362200D01*
X-304800Y4000000D02*
X-254000Y3847600D01*
X-355600D02*
X-304800Y4000000D01*
X-355600Y152400D02*
X-304800Y0D01*
X-254000Y152400D01*
X-304800Y2342789D02*
Y4000000D01*
Y0D02*
Y1575931D01*
X-330200Y4000000D02*
X-38100D01*
X-330200Y0D02*
X-38100D01*
X0Y-317500D02*
X152400Y-266700D01*
X0Y-317500D02*
X152400Y-368300D01*
X3847600D02*
X4000000Y-317500D01*
X3847600Y-266700D02*
X4000000Y-317500D01*
X0D02*
X1575931D01*
X2342789D02*
X4000000D01*
X0Y-342900D02*
Y-38100D01*
X4000000Y-342900D02*
Y-38100D01*
X3225800Y571451D02*
Y546059D01*
X3276583Y495275D01*
X3327367Y546059D01*
Y571451D01*
X3276583Y495275D02*
Y419100D01*
X3378151D02*
Y571451D01*
X3479718Y419100D01*
Y571451D01*
X3606677D02*
X3555893D01*
X3530501Y546059D01*
Y444492D01*
X3555893Y419100D01*
X3606677D01*
X3632069Y444492D01*
Y546059D01*
X3606677Y571451D01*
X3682852D02*
Y469883D01*
X3733636Y419100D01*
X3784419Y469883D01*
Y571451D01*
X3416267Y304759D02*
X3390875Y330151D01*
X3340092D01*
X3314700Y304759D01*
Y203192D01*
X3340092Y177800D01*
X3390875D01*
X3416267Y203192D01*
Y253975D01*
X3365483D01*
X3467051Y330151D02*
Y177800D01*
X3568618D01*
X3619401D02*
Y330151D01*
X3720969Y177800D01*
Y330151D01*
X2959186Y2438425D02*
Y2590775D01*
X3035362D01*
X3060754Y2565383D01*
Y2514600D01*
X3035362Y2489208D01*
X2959186D01*
X3009970D02*
X3060754Y2438425D01*
X3111537D02*
X3162321D01*
X3136929D01*
Y2590775D01*
X3111537Y2565383D01*
X3238496D02*
X3263888Y2590775D01*
X3314671D01*
X3340063Y2565383D01*
Y2463817D01*
X3314671Y2438425D01*
X3263888D01*
X3238496Y2463817D01*
Y2565383D01*
X3390847D02*
X3416239Y2590775D01*
X3467022D01*
X3492414Y2565383D01*
Y2539992D01*
X3467022Y2514600D01*
X3441630D01*
X3467022D01*
X3492414Y2489208D01*
Y2463817D01*
X3467022Y2438425D01*
X3416239D01*
X3390847Y2463817D01*
X2120875Y2133686D02*
X1968524D01*
Y2209861D01*
X1993916Y2235253D01*
X2044700D01*
X2070092Y2209861D01*
Y2133686D01*
Y2184470D02*
X2120875Y2235253D01*
Y2286037D02*
Y2336820D01*
Y2311429D01*
X1968524D01*
X1993916Y2286037D01*
Y2412996D02*
X1968524Y2438388D01*
Y2489171D01*
X1993916Y2514563D01*
X2095483D01*
X2120875Y2489171D01*
Y2438388D01*
X2095483Y2412996D01*
X1993916D01*
X2120875Y2666914D02*
Y2565346D01*
X2019308Y2666914D01*
X1993916D01*
X1968524Y2641522D01*
Y2590738D01*
X1993916Y2565346D01*
X1739925Y2679622D02*
X1892275D01*
Y2603446D01*
X1866883Y2578055D01*
X1816100D01*
X1790708Y2603446D01*
Y2679622D01*
Y2628838D02*
X1739925Y2578055D01*
Y2527271D02*
Y2476488D01*
Y2501879D01*
X1892275D01*
X1866883Y2527271D01*
Y2400312D02*
X1892275Y2374920D01*
Y2324137D01*
X1866883Y2298745D01*
X1765317D01*
X1739925Y2324137D01*
Y2374920D01*
X1765317Y2400312D01*
X1866883D01*
X1739925Y2247961D02*
Y2197178D01*
Y2222570D01*
X1892275D01*
X1866883Y2247961D01*
X304886Y2451125D02*
Y2603475D01*
X381062D01*
X406454Y2578083D01*
Y2527300D01*
X381062Y2501908D01*
X304886D01*
X355670D02*
X406454Y2451125D01*
X457237D02*
X508021D01*
X482629D01*
Y2603475D01*
X457237Y2578083D01*
X584196D02*
X609588Y2603475D01*
X660371D01*
X685763Y2578083D01*
Y2476517D01*
X660371Y2451125D01*
X609588D01*
X584196Y2476517D01*
Y2578083D01*
X736547D02*
X761939Y2603475D01*
X812722D01*
X838114Y2578083D01*
Y2476517D01*
X812722Y2451125D01*
X761939D01*
X736547Y2476517D01*
Y2578083D01*
X3187745Y1358917D02*
Y1460483D01*
X3162354Y1485875D01*
X3111570D01*
X3086178Y1460483D01*
Y1358917D01*
X3111570Y1333525D01*
X3162354D01*
X3136962Y1384308D02*
X3187745Y1333525D01*
X3162354D02*
X3187745Y1358917D01*
X3238529Y1333525D02*
X3289312D01*
X3263921D01*
Y1485875D01*
X3238529Y1460483D01*
X3365488D02*
X3390880Y1485875D01*
X3441663D01*
X3467055Y1460483D01*
Y1358917D01*
X3441663Y1333525D01*
X3390880D01*
X3365488Y1358917D01*
Y1460483D01*
X3517839Y1333525D02*
X3568622D01*
X3543230D01*
Y1485875D01*
X3517839Y1460483D01*
X330254Y1346217D02*
Y1447783D01*
X304862Y1473175D01*
X254078D01*
X228686Y1447783D01*
Y1346217D01*
X254078Y1320825D01*
X304862D01*
X279470Y1371608D02*
X330254Y1320825D01*
X304862D02*
X330254Y1346217D01*
X381037Y1320825D02*
X431821D01*
X406429D01*
Y1473175D01*
X381037Y1447783D01*
X507996D02*
X533388Y1473175D01*
X584171D01*
X609563Y1447783D01*
Y1346217D01*
X584171Y1320825D01*
X533388D01*
X507996Y1346217D01*
Y1447783D01*
X660347D02*
X685739Y1473175D01*
X736522D01*
X761914Y1447783D01*
Y1346217D01*
X736522Y1320825D01*
X685739D01*
X660347Y1346217D01*
Y1447783D01*
X2844746Y3251224D02*
X2895530D01*
X2870138D01*
Y3378183D01*
X2895530Y3403575D01*
X2920922D01*
X2946314Y3378183D01*
X2793963Y3403575D02*
X2743179D01*
X2768571D01*
Y3251224D01*
X2793963Y3276616D01*
X2667004D02*
X2641612Y3251224D01*
X2590829D01*
X2565437Y3276616D01*
Y3378183D01*
X2590829Y3403575D01*
X2641612D01*
X2667004Y3378183D01*
Y3276616D01*
X2514653D02*
X2489261Y3251224D01*
X2438478D01*
X2413086Y3276616D01*
Y3378183D01*
X2438478Y3403575D01*
X2489261D01*
X2514653Y3378183D01*
Y3276616D01*
X2971878Y2197075D02*
Y2044725D01*
X3048054D01*
X3073445Y2070117D01*
Y2171683D01*
X3048054Y2197075D01*
X2971878D01*
X3124229Y2044725D02*
X3175012D01*
X3149621D01*
Y2197075D01*
X3124229Y2171683D01*
X3251188D02*
X3276580Y2197075D01*
X3327363D01*
X3352755Y2171683D01*
Y2070117D01*
X3327363Y2044725D01*
X3276580D01*
X3251188Y2070117D01*
Y2171683D01*
X3403539Y2044725D02*
X3454322D01*
X3428930D01*
Y2197075D01*
X3403539Y2171683D01*
X292186Y2209775D02*
Y2057425D01*
X368362D01*
X393754Y2082817D01*
Y2184383D01*
X368362Y2209775D01*
X292186D01*
X444537Y2057425D02*
X495321D01*
X469929D01*
Y2209775D01*
X444537Y2184383D01*
X571496D02*
X596888Y2209775D01*
X647671D01*
X673063Y2184383D01*
Y2082817D01*
X647671Y2057425D01*
X596888D01*
X571496Y2082817D01*
Y2184383D01*
X723847D02*
X749239Y2209775D01*
X800022D01*
X825414Y2184383D01*
Y2082817D01*
X800022Y2057425D01*
X749239D01*
X723847Y2082817D01*
Y2184383D01*
X1993917Y1663745D02*
X1968525Y1638354D01*
Y1587570D01*
X1993917Y1562178D01*
X2095483D01*
X2120875Y1587570D01*
Y1638354D01*
X2095483Y1663745D01*
X2120875Y1714529D02*
Y1765312D01*
Y1739921D01*
X1968525D01*
X1993917Y1714529D01*
Y1841488D02*
X1968525Y1866880D01*
Y1917663D01*
X1993917Y1943055D01*
X2095483D01*
X2120875Y1917663D01*
Y1866880D01*
X2095483Y1841488D01*
X1993917D01*
X2120875Y1993839D02*
Y2044622D01*
Y2019230D01*
X1968525D01*
X1993917Y1993839D01*
X1866883Y2006546D02*
X1892275Y2031938D01*
Y2082722D01*
X1866883Y2108114D01*
X1765317D01*
X1739925Y2082722D01*
Y2031938D01*
X1765317Y2006546D01*
X1739925Y1955763D02*
Y1904979D01*
Y1930371D01*
X1892275D01*
X1866883Y1955763D01*
Y1828804D02*
X1892275Y1803412D01*
Y1752629D01*
X1866883Y1727237D01*
X1765317D01*
X1739925Y1752629D01*
Y1803412D01*
X1765317Y1828804D01*
X1866883D01*
Y1676453D02*
X1892275Y1651061D01*
Y1600278D01*
X1866883Y1574886D01*
X1765317D01*
X1739925Y1600278D01*
Y1651061D01*
X1765317Y1676453D01*
X1866883D01*
D22*
X977900Y2006600D02*
X1003300D01*
X927100Y2032000D02*
Y2235200D01*
X1054100Y2032000D02*
Y2235200D01*
X2832100Y1993900D02*
X2857500D01*
X2781300Y2019300D02*
Y2222500D01*
X2908300Y2019300D02*
Y2222500D01*
D23*
X-213385Y1692746D02*
X-365735D01*
X-289560Y1616571D01*
Y1718138D01*
X-340343Y1768922D02*
X-365735Y1794313D01*
Y1845097D01*
X-340343Y1870489D01*
X-238777D01*
X-213385Y1845097D01*
Y1794313D01*
X-238777Y1768922D01*
X-340343D01*
X-213385Y1921272D02*
X-238777D01*
Y1946664D01*
X-213385D01*
Y1921272D01*
X-340343Y2048231D02*
X-365735Y2073623D01*
Y2124406D01*
X-340343Y2149798D01*
X-238777D01*
X-213385Y2124406D01*
Y2073623D01*
X-238777Y2048231D01*
X-340343D01*
Y2200582D02*
X-365735Y2225974D01*
Y2276757D01*
X-340343Y2302149D01*
X-238777D01*
X-213385Y2276757D01*
Y2225974D01*
X-238777Y2200582D01*
X-340343D01*
X1692746Y-408915D02*
Y-256565D01*
X1616571Y-332740D01*
X1718138D01*
X1768922Y-281957D02*
X1794313Y-256565D01*
X1845097D01*
X1870489Y-281957D01*
Y-383523D01*
X1845097Y-408915D01*
X1794313D01*
X1768922Y-383523D01*
Y-281957D01*
X1921272Y-408915D02*
Y-383523D01*
X1946664D01*
Y-408915D01*
X1921272D01*
X2048231Y-281957D02*
X2073623Y-256565D01*
X2124406D01*
X2149798Y-281957D01*
Y-383523D01*
X2124406Y-408915D01*
X2073623D01*
X2048231Y-383523D01*
Y-281957D01*
X2200582D02*
X2225974Y-256565D01*
X2276757D01*
X2302149Y-281957D01*
Y-383523D01*
X2276757Y-408915D01*
X2225974D01*
X2200582Y-383523D01*
Y-281957D01*
%TF.MD5,0d210cc39f264c71b86c92f7d50e22a9*%
M02*
