%TF.GenerationSoftware,Altium Limited,Altium Designer,25.3.3 (18)*%
G04 Layer_Color=8388736*
%FSLAX45Y45*%
%MOMM*%
%TF.SameCoordinates,9E2B5B90-9635-46D3-A97A-D2E9DF57011F*%
%TF.FilePolarity,Negative*%
%TF.FileFunction,Soldermask,Top*%
%TF.Part,Single*%
G01*
G75*
%TA.AperFunction,SMDPad,CuDef*%
%ADD23R,1.10320X1.00320*%
%ADD24R,1.35320X0.80320*%
%ADD25R,1.00320X1.00320*%
%TA.AperFunction,ComponentPad*%
%ADD26R,1.55320X1.55320*%
%ADD27C,1.55320*%
%ADD28C,4.01320*%
%TA.AperFunction,ViaPad*%
%ADD29C,1.05320*%
D23*
X8661400Y7505700D02*
D03*
Y7647940D02*
D03*
Y7379980D02*
D03*
Y7237740D02*
D03*
X10756900Y7505700D02*
D03*
Y7647940D02*
D03*
X10755360Y7379980D02*
D03*
Y7237740D02*
D03*
D24*
X9904200Y7823200D02*
D03*
X9679200Y7728200D02*
D03*
Y7918200D02*
D03*
Y7404100D02*
D03*
X9904200Y7499100D02*
D03*
Y7309100D02*
D03*
D25*
X9061600Y6858000D02*
D03*
X8921600D02*
D03*
X10293200Y6883400D02*
D03*
X10433200D02*
D03*
D26*
X10464800Y7392800D02*
D03*
X8991600D02*
D03*
D27*
X10464800Y7567800D02*
D03*
X8991600D02*
D03*
D28*
X10058400Y9055100D02*
D03*
X9550400D02*
D03*
D29*
X10121900Y7404100D02*
D03*
%TF.MD5,da58e33a60ab22fdb40318d9ee5da588*%
M02*
