%TF.GenerationSoftware,Altium Limited,Altium Designer,26.5.0 (11)*%
G04 Layer_Color=65535*
G04 Board_Origin=10078740|12928740*
%FSLAX45Y45*%
%MOMM*%
%TF.SameCoordinates,5994FA3D-4564-4C55-8066-6C7771445305*%
%TF.FilePolarity,Positive*%
%TF.FileFunction,Legend,Top*%
%TF.Part,Single*%
G01*
G75*
%TA.AperFunction,NonConductor*%
%ADD20C,0.25000*%
%ADD21C,0.20000*%
%ADD22C,0.25400*%
%ADD23C,0.10000*%
%ADD24C,0.15000*%
D20*
X3288000Y1722100D02*
G03*
X3288000Y1722100I-12500J0D01*
G01*
X2714200Y838900D02*
G03*
X2714200Y838900I-12500J0D01*
G01*
D21*
X2158499Y1976051D02*
G03*
X2182833Y1625511I107501J-168652D01*
G01*
X2349167D02*
G03*
X2373501Y1976051I-83167J181888D01*
G01*
X2447351Y836801D02*
G03*
X2096811Y812468I-168652J-107501D01*
G01*
Y646133D02*
G03*
X2447351Y621799I181888J83167D01*
G01*
X3210499Y1487099D02*
Y1567099D01*
X3120502Y1487099D02*
X3210499D01*
Y1707098D02*
Y1787098D01*
X3120502D02*
X3210499D01*
X2856702Y773902D02*
X2936702D01*
Y683900D02*
Y773902D01*
X2636698D02*
X2716698D01*
X2636698Y683900D02*
Y773902D01*
D22*
X12700Y1752600D02*
X838200D01*
X12700Y736600D02*
Y1752600D01*
Y736600D02*
X838200D01*
Y1752600D01*
D23*
X2570800Y2068998D02*
X2596200D01*
X2520000Y2094398D02*
Y2297598D01*
X2647000Y2094398D02*
Y2297598D01*
X3675700Y1548298D02*
X3701100D01*
X3624900Y1573698D02*
Y1776898D01*
X3751900Y1573698D02*
Y1776898D01*
D24*
X165154Y2031975D02*
X114370D01*
X139762D01*
Y1905017D01*
X114370Y1879625D01*
X88978D01*
X63586Y1905017D01*
X215937Y1879625D02*
X266721D01*
X241329D01*
Y2031975D01*
X215937Y2006583D01*
X342896D02*
X368288Y2031975D01*
X419071D01*
X444463Y2006583D01*
Y1905017D01*
X419071Y1879625D01*
X368288D01*
X342896Y1905017D01*
Y2006583D01*
X495247D02*
X520639Y2031975D01*
X571422D01*
X596814Y2006583D01*
Y1905017D01*
X571422Y1879625D01*
X520639D01*
X495247Y1905017D01*
Y2006583D01*
X3307384Y1021446D02*
X3205817D01*
X3180425Y996054D01*
Y945270D01*
X3205817Y919878D01*
X3307384D01*
X3332775Y945270D01*
Y996054D01*
X3281992Y970662D02*
X3332775Y1021446D01*
Y996054D02*
X3307384Y1021446D01*
X3332775Y1072229D02*
Y1123012D01*
Y1097621D01*
X3180425D01*
X3205817Y1072229D01*
Y1199188D02*
X3180425Y1224580D01*
Y1275363D01*
X3205817Y1300755D01*
X3307384D01*
X3332775Y1275363D01*
Y1224580D01*
X3307384Y1199188D01*
X3205817D01*
X3332775Y1351539D02*
Y1402322D01*
Y1376930D01*
X3180425D01*
X3205817Y1351539D01*
X2075554Y1402384D02*
X2050162Y1427775D01*
X1999378D01*
X1973986Y1402384D01*
Y1300817D01*
X1999378Y1275425D01*
X2050162D01*
X2075554Y1300817D01*
X2126337Y1275425D02*
X2177121D01*
X2151729D01*
Y1427775D01*
X2126337Y1402384D01*
X2253296D02*
X2278688Y1427775D01*
X2329471D01*
X2354863Y1402384D01*
Y1300817D01*
X2329471Y1275425D01*
X2278688D01*
X2253296Y1300817D01*
Y1402384D01*
X2405647D02*
X2431039Y1427775D01*
X2481822D01*
X2507214Y1402384D01*
Y1300817D01*
X2481822Y1275425D01*
X2431039D01*
X2405647Y1300817D01*
Y1402384D01*
X2494625Y2494686D02*
X2646975D01*
Y2570862D01*
X2621584Y2596254D01*
X2520017D01*
X2494625Y2570862D01*
Y2494686D01*
X2646975Y2647037D02*
Y2697821D01*
Y2672429D01*
X2494625D01*
X2520017Y2647037D01*
Y2773996D02*
X2494625Y2799388D01*
Y2850171D01*
X2520017Y2875563D01*
X2621584D01*
X2646975Y2850171D01*
Y2799388D01*
X2621584Y2773996D01*
X2520017D01*
Y2926347D02*
X2494625Y2951739D01*
Y3002522D01*
X2520017Y3027914D01*
X2621584D01*
X2646975Y3002522D01*
Y2951739D01*
X2621584Y2926347D01*
X2520017D01*
X3040675Y2494686D02*
X2888325D01*
Y2570862D01*
X2913717Y2596254D01*
X2964500D01*
X2989892Y2570862D01*
Y2494686D01*
Y2545470D02*
X3040675Y2596254D01*
Y2647037D02*
Y2697821D01*
Y2672429D01*
X2888325D01*
X2913717Y2647037D01*
Y2773996D02*
X2888325Y2799388D01*
Y2850171D01*
X2913717Y2875563D01*
X3015284D01*
X3040675Y2850171D01*
Y2799388D01*
X3015284Y2773996D01*
X2913717D01*
Y2926347D02*
X2888325Y2951739D01*
Y3002522D01*
X2913717Y3027914D01*
X3015284D01*
X3040675Y3002522D01*
Y2951739D01*
X3015284Y2926347D01*
X2913717D01*
X2812154Y234017D02*
Y335584D01*
X2786762Y360975D01*
X2735978D01*
X2710586Y335584D01*
Y234017D01*
X2735978Y208625D01*
X2786762D01*
X2761370Y259408D02*
X2812154Y208625D01*
X2786762D02*
X2812154Y234017D01*
X2862937Y208625D02*
X2913721D01*
X2888329D01*
Y360975D01*
X2862937Y335584D01*
X2989896D02*
X3015288Y360975D01*
X3066071D01*
X3091463Y335584D01*
Y234017D01*
X3066071Y208625D01*
X3015288D01*
X2989896Y234017D01*
Y335584D01*
X3142247D02*
X3167639Y360975D01*
X3218422D01*
X3243814Y335584D01*
Y234017D01*
X3218422Y208625D01*
X3167639D01*
X3142247Y234017D01*
Y335584D01*
X3637625Y919878D02*
X3789975D01*
Y996054D01*
X3764584Y1021446D01*
X3663017D01*
X3637625Y996054D01*
Y919878D01*
X3789975Y1072229D02*
Y1123012D01*
Y1097621D01*
X3637625D01*
X3663017Y1072229D01*
Y1199188D02*
X3637625Y1224580D01*
Y1275363D01*
X3663017Y1300755D01*
X3764584D01*
X3789975Y1275363D01*
Y1224580D01*
X3764584Y1199188D01*
X3663017D01*
X3789975Y1351539D02*
Y1402322D01*
Y1376930D01*
X3637625D01*
X3663017Y1351539D01*
X1465875Y1846978D02*
X1313525D01*
Y1923154D01*
X1338917Y1948546D01*
X1389700D01*
X1415092Y1923154D01*
Y1846978D01*
Y1897762D02*
X1465875Y1948546D01*
Y1999329D02*
Y2050112D01*
Y2024721D01*
X1313525D01*
X1338917Y1999329D01*
Y2126288D02*
X1313525Y2151680D01*
Y2202463D01*
X1338917Y2227855D01*
X1440484D01*
X1465875Y2202463D01*
Y2151680D01*
X1440484Y2126288D01*
X1338917D01*
X1465875Y2278639D02*
Y2329422D01*
Y2304030D01*
X1313525D01*
X1338917Y2278639D01*
X1465875Y742086D02*
X1313525D01*
Y818262D01*
X1338917Y843654D01*
X1389700D01*
X1415092Y818262D01*
Y742086D01*
Y792870D02*
X1465875Y843654D01*
Y894437D02*
Y945221D01*
Y919829D01*
X1313525D01*
X1338917Y894437D01*
Y1021396D02*
X1313525Y1046788D01*
Y1097571D01*
X1338917Y1122963D01*
X1440484D01*
X1465875Y1097571D01*
Y1046788D01*
X1440484Y1021396D01*
X1338917D01*
X1465875Y1275314D02*
Y1173747D01*
X1364308Y1275314D01*
X1338917D01*
X1313525Y1249922D01*
Y1199139D01*
X1338917Y1173747D01*
X2113646Y335584D02*
X2088254Y360975D01*
X2037470D01*
X2012078Y335584D01*
Y234017D01*
X2037470Y208625D01*
X2088254D01*
X2113646Y234017D01*
X2164429Y208625D02*
X2215212D01*
X2189821D01*
Y360975D01*
X2164429Y335584D01*
X2291388D02*
X2316780Y360975D01*
X2367563D01*
X2392955Y335584D01*
Y234017D01*
X2367563Y208625D01*
X2316780D01*
X2291388Y234017D01*
Y335584D01*
X2443739Y208625D02*
X2494522D01*
X2469130D01*
Y360975D01*
X2443739Y335584D01*
X3459775Y2494686D02*
X3307425D01*
Y2570862D01*
X3332817Y2596254D01*
X3383600D01*
X3408992Y2570862D01*
Y2494686D01*
Y2545470D02*
X3459775Y2596254D01*
Y2647037D02*
Y2697821D01*
Y2672429D01*
X3307425D01*
X3332817Y2647037D01*
Y2773996D02*
X3307425Y2799388D01*
Y2850171D01*
X3332817Y2875563D01*
X3434384D01*
X3459775Y2850171D01*
Y2799388D01*
X3434384Y2773996D01*
X3332817D01*
Y2926347D02*
X3307425Y2951739D01*
Y3002522D01*
X3332817Y3027914D01*
X3358208D01*
X3383600Y3002522D01*
Y2977130D01*
Y3002522D01*
X3408992Y3027914D01*
X3434384D01*
X3459775Y3002522D01*
Y2951739D01*
X3434384Y2926347D01*
%TF.MD5,a6b8cec768ba0ba22bba007b32ac4dc9*%
M02*
