%TF.GenerationSoftware,Altium Limited,Altium Designer,25.3.3 (18)*%
G04 Layer_Color=65535*
%FSLAX45Y45*%
%MOMM*%
%TF.SameCoordinates,9E2B5B90-9635-46D3-A97A-D2E9DF57011F*%
%TF.FilePolarity,Positive*%
%TF.FileFunction,Legend,Top*%
%TF.Part,Single*%
G01*
G75*
%TA.AperFunction,NonConductor*%
%ADD18C,0.20000*%
%ADD19C,0.25000*%
%ADD20C,0.10000*%
%ADD21C,0.25400*%
%ADD22C,0.15000*%
D18*
X10572301Y7311649D02*
G03*
X10547967Y7662189I-107501J168652D01*
G01*
X10381633D02*
G03*
X10357299Y7311649I83167J-181888D01*
G01*
X9099101D02*
G03*
X9074767Y7662189I-107501J168652D01*
G01*
X8908433D02*
G03*
X8884099Y7311649I83167J-181888D01*
G01*
X9861700Y7673200D02*
Y7753200D01*
X9771700Y7673200D02*
X9861700D01*
Y7893200D02*
Y7973200D01*
X9771700D02*
X9861700D01*
X9721700Y7474100D02*
Y7554100D01*
X9811700D01*
X9721700Y7254100D02*
Y7334100D01*
Y7254100D02*
X9811700D01*
D19*
X9939200Y7908200D02*
G03*
X9939200Y7908200I-12500J0D01*
G01*
X9669200Y7319100D02*
G03*
X9669200Y7319100I-12500J0D01*
G01*
D20*
X9118600Y6845300D02*
Y6870700D01*
X8890000Y6794500D02*
X9093200D01*
X8890000Y6921500D02*
X9093200D01*
X10236200Y6870700D02*
Y6896100D01*
X10261600Y6946900D02*
X10464800D01*
X10261600Y6819900D02*
X10464800D01*
D21*
X10312400Y8610600D02*
Y9436100D01*
X9296400D02*
X10312400D01*
X9296400Y8610600D02*
Y9436100D01*
Y8610600D02*
X10312400D01*
D22*
X10223545Y7848583D02*
X10198154Y7873975D01*
X10147370D01*
X10121978Y7848583D01*
Y7747017D01*
X10147370Y7721625D01*
X10198154D01*
X10223545Y7747017D01*
X10274329Y7721625D02*
X10325112D01*
X10299721D01*
Y7873975D01*
X10274329Y7848583D01*
X10401288D02*
X10426680Y7873975D01*
X10477463D01*
X10502855Y7848583D01*
Y7747017D01*
X10477463Y7721625D01*
X10426680D01*
X10401288Y7747017D01*
Y7848583D01*
X10553639Y7721625D02*
X10604422D01*
X10579030D01*
Y7873975D01*
X10553639Y7848583D01*
X8051878Y7581925D02*
Y7734275D01*
X8128054D01*
X8153445Y7708883D01*
Y7658100D01*
X8128054Y7632708D01*
X8051878D01*
X8102662D02*
X8153445Y7581925D01*
X8204229D02*
X8255012D01*
X8229621D01*
Y7734275D01*
X8204229Y7708883D01*
X8331188D02*
X8356580Y7734275D01*
X8407363D01*
X8432755Y7708883D01*
Y7607317D01*
X8407363Y7581925D01*
X8356580D01*
X8331188Y7607317D01*
Y7708883D01*
X8483539Y7581925D02*
X8534322D01*
X8508930D01*
Y7734275D01*
X8483539Y7708883D01*
X8026486Y7124725D02*
Y7277075D01*
X8102662D01*
X8128054Y7251683D01*
Y7200900D01*
X8102662Y7175508D01*
X8026486D01*
X8077270D02*
X8128054Y7124725D01*
X8178837D02*
X8229621D01*
X8204229D01*
Y7277075D01*
X8178837Y7251683D01*
X8305796D02*
X8331188Y7277075D01*
X8381971D01*
X8407363Y7251683D01*
Y7150117D01*
X8381971Y7124725D01*
X8331188D01*
X8305796Y7150117D01*
Y7251683D01*
X8458147D02*
X8483539Y7277075D01*
X8534322D01*
X8559714Y7251683D01*
Y7150117D01*
X8534322Y7124725D01*
X8483539D01*
X8458147Y7150117D01*
Y7251683D01*
X10871286Y7531125D02*
Y7683475D01*
X10947462D01*
X10972854Y7658083D01*
Y7607300D01*
X10947462Y7581908D01*
X10871286D01*
X10922070D02*
X10972854Y7531125D01*
X11023637D02*
X11074421D01*
X11049029D01*
Y7683475D01*
X11023637Y7658083D01*
X11150596D02*
X11175988Y7683475D01*
X11226771D01*
X11252163Y7658083D01*
Y7556517D01*
X11226771Y7531125D01*
X11175988D01*
X11150596Y7556517D01*
Y7658083D01*
X11404514Y7531125D02*
X11302947D01*
X11404514Y7632692D01*
Y7658083D01*
X11379122Y7683475D01*
X11328339D01*
X11302947Y7658083D01*
X10869747Y7151405D02*
Y7303756D01*
X10945922D01*
X10971314Y7278364D01*
Y7227580D01*
X10945922Y7202188D01*
X10869747D01*
X10920530D02*
X10971314Y7151405D01*
X11022097D02*
X11072881D01*
X11047489D01*
Y7303756D01*
X11022097Y7278364D01*
X11149056D02*
X11174448Y7303756D01*
X11225232D01*
X11250623Y7278364D01*
Y7176797D01*
X11225232Y7151405D01*
X11174448D01*
X11149056Y7176797D01*
Y7278364D01*
X11301407D02*
X11326799Y7303756D01*
X11377582D01*
X11402974Y7278364D01*
Y7252972D01*
X11377582Y7227580D01*
X11352190D01*
X11377582D01*
X11402974Y7202188D01*
Y7176797D01*
X11377582Y7151405D01*
X11326799D01*
X11301407Y7176797D01*
X9829845Y8051817D02*
Y8153383D01*
X9804454Y8178775D01*
X9753670D01*
X9728278Y8153383D01*
Y8051817D01*
X9753670Y8026425D01*
X9804454D01*
X9779062Y8077208D02*
X9829845Y8026425D01*
X9804454D02*
X9829845Y8051817D01*
X9880629Y8026425D02*
X9931412D01*
X9906021D01*
Y8178775D01*
X9880629Y8153383D01*
X10007588D02*
X10032980Y8178775D01*
X10083763D01*
X10109155Y8153383D01*
Y8051817D01*
X10083763Y8026425D01*
X10032980D01*
X10007588Y8051817D01*
Y8153383D01*
X10159939Y8026425D02*
X10210722D01*
X10185330D01*
Y8178775D01*
X10159939Y8153383D01*
X9626654Y7073917D02*
Y7175483D01*
X9601262Y7200875D01*
X9550478D01*
X9525087Y7175483D01*
Y7073917D01*
X9550478Y7048525D01*
X9601262D01*
X9575870Y7099308D02*
X9626654Y7048525D01*
X9601262D02*
X9626654Y7073917D01*
X9677437Y7048525D02*
X9728221D01*
X9702829D01*
Y7200875D01*
X9677437Y7175483D01*
X9804396D02*
X9829788Y7200875D01*
X9880572D01*
X9905963Y7175483D01*
Y7073917D01*
X9880572Y7048525D01*
X9829788D01*
X9804396Y7073917D01*
Y7175483D01*
X9956747D02*
X9982139Y7200875D01*
X10032922D01*
X10058314Y7175483D01*
Y7073917D01*
X10032922Y7048525D01*
X9982139D01*
X9956747Y7073917D01*
Y7175483D01*
X8737686Y6743675D02*
Y6591325D01*
X8813862D01*
X8839254Y6616717D01*
Y6718283D01*
X8813862Y6743675D01*
X8737686D01*
X8890037Y6591325D02*
X8940821D01*
X8915429D01*
Y6743675D01*
X8890037Y6718283D01*
X9016996D02*
X9042388Y6743675D01*
X9093171D01*
X9118563Y6718283D01*
Y6616717D01*
X9093171Y6591325D01*
X9042388D01*
X9016996Y6616717D01*
Y6718283D01*
X9169347D02*
X9194739Y6743675D01*
X9245522D01*
X9270914Y6718283D01*
Y6616717D01*
X9245522Y6591325D01*
X9194739D01*
X9169347Y6616717D01*
Y6718283D01*
X10121978Y6769075D02*
Y6616725D01*
X10198154D01*
X10223545Y6642117D01*
Y6743683D01*
X10198154Y6769075D01*
X10121978D01*
X10274329Y6616725D02*
X10325112D01*
X10299721D01*
Y6769075D01*
X10274329Y6743683D01*
X10401288D02*
X10426680Y6769075D01*
X10477463D01*
X10502855Y6743683D01*
Y6642117D01*
X10477463Y6616725D01*
X10426680D01*
X10401288Y6642117D01*
Y6743683D01*
X10553639Y6616725D02*
X10604422D01*
X10579030D01*
Y6769075D01*
X10553639Y6743683D01*
X9400507Y9667191D02*
X9349723D01*
X9375115D01*
Y9540232D01*
X9349723Y9514840D01*
X9324332D01*
X9298940Y9540232D01*
X9451291Y9514840D02*
X9502074D01*
X9476683D01*
Y9667191D01*
X9451291Y9641799D01*
X9578250D02*
X9603641Y9667191D01*
X9654425D01*
X9679817Y9641799D01*
Y9540232D01*
X9654425Y9514840D01*
X9603641D01*
X9578250Y9540232D01*
Y9641799D01*
X9730600D02*
X9755992Y9667191D01*
X9806776D01*
X9832168Y9641799D01*
Y9540232D01*
X9806776Y9514840D01*
X9755992D01*
X9730600Y9540232D01*
Y9641799D01*
X8897587Y7873959D02*
X8872195Y7899351D01*
X8821412D01*
X8796020Y7873959D01*
Y7772392D01*
X8821412Y7747000D01*
X8872195D01*
X8897587Y7772392D01*
X8948371Y7747000D02*
X8999154D01*
X8973763D01*
Y7899351D01*
X8948371Y7873959D01*
X9075330D02*
X9100721Y7899351D01*
X9151505D01*
X9176897Y7873959D01*
Y7772392D01*
X9151505Y7747000D01*
X9100721D01*
X9075330Y7772392D01*
Y7873959D01*
X9227680D02*
X9253072Y7899351D01*
X9303856D01*
X9329248Y7873959D01*
Y7772392D01*
X9303856Y7747000D01*
X9253072D01*
X9227680Y7772392D01*
Y7873959D01*
%TF.MD5,2e8df3d4cbd432845174bed96520946c*%
M02*
