%TF.GenerationSoftware,Altium Limited,Altium Designer,26.4.1 (12)*%
G04 Layer_Color=65535*
%FSLAX45Y45*%
%MOMM*%
%TF.SameCoordinates,1FFA2065-3418-4F96-B31F-B0DFC3EC218E*%
%TF.FilePolarity,Positive*%
%TF.FileFunction,Legend,Top*%
%TF.Part,Single*%
G01*
G75*
%TA.AperFunction,NonConductor*%
%ADD18C,0.25000*%
%ADD19C,0.20000*%
%ADD20C,0.10000*%
%ADD21C,0.25400*%
%ADD22C,0.15000*%
D18*
X5022800Y4003600D02*
G03*
X5022800Y4003600I-12500J0D01*
G01*
X3855900Y3221900D02*
G03*
X3855900Y3221900I-12500J0D01*
G01*
D19*
X5743951Y3294401D02*
G03*
X5393411Y3270067I-168652J-107501D01*
G01*
Y3103733D02*
G03*
X5743951Y3079399I181888J83167D01*
G01*
X3908049Y3931099D02*
G03*
X4258589Y3955433I168652J107501D01*
G01*
Y4121767D02*
G03*
X3908049Y4146101I-181888J-83167D01*
G01*
X5075300Y4158600D02*
Y4238600D01*
X5165300D01*
X5075300Y3938600D02*
Y4018600D01*
Y3938600D02*
X5165300D01*
X3778400Y2986900D02*
Y3066900D01*
X3688400Y2986900D02*
X3778400D01*
Y3206900D02*
Y3286900D01*
X3688400D02*
X3778400D01*
D20*
X3606800Y4597400D02*
X3632200D01*
X3556000Y4622800D02*
Y4826000D01*
X3683000Y4622800D02*
Y4826000D01*
X5689600Y4597400D02*
X5715000D01*
X5638800Y4622800D02*
Y4826000D01*
X5765800Y4622800D02*
Y4826000D01*
D21*
X4165600Y5651500D02*
Y6477000D01*
Y5651500D02*
X5181600D01*
Y6477000D01*
X4165600D02*
X5181600D01*
X4279867Y6718251D02*
X4229083D01*
X4254475D01*
Y6591292D01*
X4229083Y6565900D01*
X4203692D01*
X4178300Y6591292D01*
X4330651Y6565900D02*
X4381434D01*
X4356043D01*
Y6718251D01*
X4330651Y6692859D01*
X4457610D02*
X4483001Y6718251D01*
X4533785D01*
X4559177Y6692859D01*
Y6591292D01*
X4533785Y6565900D01*
X4483001D01*
X4457610Y6591292D01*
Y6692859D01*
X4609960D02*
X4635352Y6718251D01*
X4686136D01*
X4711528Y6692859D01*
Y6591292D01*
X4686136Y6565900D01*
X4635352D01*
X4609960Y6591292D01*
Y6692859D01*
D22*
X4902254Y4368817D02*
Y4470383D01*
X4876862Y4495775D01*
X4826078D01*
X4800686Y4470383D01*
Y4368817D01*
X4826078Y4343425D01*
X4876862D01*
X4851470Y4394208D02*
X4902254Y4343425D01*
X4876862D02*
X4902254Y4368817D01*
X4953037Y4343425D02*
X5003821D01*
X4978429D01*
Y4495775D01*
X4953037Y4470383D01*
X5079996D02*
X5105388Y4495775D01*
X5156171D01*
X5181563Y4470383D01*
Y4368817D01*
X5156171Y4343425D01*
X5105388D01*
X5079996Y4368817D01*
Y4470383D01*
X5232347D02*
X5257739Y4495775D01*
X5308522D01*
X5333914Y4470383D01*
Y4368817D01*
X5308522Y4343425D01*
X5257739D01*
X5232347Y4368817D01*
Y4470383D01*
X5930945Y3200383D02*
X5905554Y3225775D01*
X5854770D01*
X5829378Y3200383D01*
Y3098817D01*
X5854770Y3073425D01*
X5905554D01*
X5930945Y3098817D01*
X5981729Y3073425D02*
X6032512D01*
X6007121D01*
Y3225775D01*
X5981729Y3200383D01*
X6108688D02*
X6134080Y3225775D01*
X6184863D01*
X6210255Y3200383D01*
Y3098817D01*
X6184863Y3073425D01*
X6134080D01*
X6108688Y3098817D01*
Y3200383D01*
X6261039Y3073425D02*
X6311822D01*
X6286430D01*
Y3225775D01*
X6261039Y3200383D01*
X3048045Y3238517D02*
Y3340083D01*
X3022654Y3365475D01*
X2971870D01*
X2946478Y3340083D01*
Y3238517D01*
X2971870Y3213125D01*
X3022654D01*
X2997262Y3263908D02*
X3048045Y3213125D01*
X3022654D02*
X3048045Y3238517D01*
X3098829Y3213125D02*
X3149612D01*
X3124221D01*
Y3365475D01*
X3098829Y3340083D01*
X3225788D02*
X3251180Y3365475D01*
X3301963D01*
X3327355Y3340083D01*
Y3238517D01*
X3301963Y3213125D01*
X3251180D01*
X3225788Y3238517D01*
Y3340083D01*
X3378139Y3213125D02*
X3428922D01*
X3403530D01*
Y3365475D01*
X3378139Y3340083D01*
X3429054Y3860783D02*
X3403662Y3886175D01*
X3352878D01*
X3327486Y3860783D01*
Y3759217D01*
X3352878Y3733825D01*
X3403662D01*
X3429054Y3759217D01*
X3479837Y3733825D02*
X3530621D01*
X3505229D01*
Y3886175D01*
X3479837Y3860783D01*
X3606796D02*
X3632188Y3886175D01*
X3682971D01*
X3708363Y3860783D01*
Y3759217D01*
X3682971Y3733825D01*
X3632188D01*
X3606796Y3759217D01*
Y3860783D01*
X3759147D02*
X3784539Y3886175D01*
X3835322D01*
X3860714Y3860783D01*
Y3759217D01*
X3835322Y3733825D01*
X3784539D01*
X3759147Y3759217D01*
Y3860783D01*
X2933786Y4787875D02*
Y4635525D01*
X3009962D01*
X3035354Y4660917D01*
Y4762483D01*
X3009962Y4787875D01*
X2933786D01*
X3086137Y4635525D02*
X3136921D01*
X3111529D01*
Y4787875D01*
X3086137Y4762483D01*
X3213096D02*
X3238488Y4787875D01*
X3289271D01*
X3314663Y4762483D01*
Y4660917D01*
X3289271Y4635525D01*
X3238488D01*
X3213096Y4660917D01*
Y4762483D01*
X3365447D02*
X3390839Y4787875D01*
X3441622D01*
X3467014Y4762483D01*
Y4660917D01*
X3441622Y4635525D01*
X3390839D01*
X3365447Y4660917D01*
Y4762483D01*
X5867478Y4813275D02*
Y4660925D01*
X5943654D01*
X5969045Y4686317D01*
Y4787883D01*
X5943654Y4813275D01*
X5867478D01*
X6019829Y4660925D02*
X6070612D01*
X6045221D01*
Y4813275D01*
X6019829Y4787883D01*
X6146788D02*
X6172180Y4813275D01*
X6222963D01*
X6248355Y4787883D01*
Y4686317D01*
X6222963Y4660925D01*
X6172180D01*
X6146788Y4686317D01*
Y4787883D01*
X6299139Y4660925D02*
X6349922D01*
X6324530D01*
Y4813275D01*
X6299139Y4787883D01*
X4711786Y5435625D02*
Y5587975D01*
X4787962D01*
X4813354Y5562583D01*
Y5511800D01*
X4787962Y5486408D01*
X4711786D01*
X4762570D02*
X4813354Y5435625D01*
X4864137D02*
X4914921D01*
X4889529D01*
Y5587975D01*
X4864137Y5562583D01*
X4991096D02*
X5016488Y5587975D01*
X5067271D01*
X5092663Y5562583D01*
Y5461017D01*
X5067271Y5435625D01*
X5016488D01*
X4991096Y5461017D01*
Y5562583D01*
X5245014Y5435625D02*
X5143447D01*
X5245014Y5537192D01*
Y5562583D01*
X5219622Y5587975D01*
X5168839D01*
X5143447Y5562583D01*
X3873578Y5435625D02*
Y5587975D01*
X3949754D01*
X3975145Y5562583D01*
Y5511800D01*
X3949754Y5486408D01*
X3873578D01*
X3924362D02*
X3975145Y5435625D01*
X4025929D02*
X4076712D01*
X4051321D01*
Y5587975D01*
X4025929Y5562583D01*
X4152888D02*
X4178280Y5587975D01*
X4229063D01*
X4254455Y5562583D01*
Y5461017D01*
X4229063Y5435625D01*
X4178280D01*
X4152888Y5461017D01*
Y5562583D01*
X4305239Y5435625D02*
X4356022D01*
X4330630D01*
Y5587975D01*
X4305239Y5562583D01*
X3098886Y5435625D02*
Y5587975D01*
X3175062D01*
X3200454Y5562583D01*
Y5511800D01*
X3175062Y5486408D01*
X3098886D01*
X3149670D02*
X3200454Y5435625D01*
X3251237D02*
X3302021D01*
X3276629D01*
Y5587975D01*
X3251237Y5562583D01*
X3378196D02*
X3403588Y5587975D01*
X3454371D01*
X3479763Y5562583D01*
Y5461017D01*
X3454371Y5435625D01*
X3403588D01*
X3378196Y5461017D01*
Y5562583D01*
X3530547D02*
X3555939Y5587975D01*
X3606722D01*
X3632114Y5562583D01*
Y5461017D01*
X3606722Y5435625D01*
X3555939D01*
X3530547Y5461017D01*
Y5562583D01*
X5656580Y5427980D02*
Y5580331D01*
X5732755D01*
X5758147Y5554939D01*
Y5504155D01*
X5732755Y5478763D01*
X5656580D01*
X5707363D02*
X5758147Y5427980D01*
X5808931D02*
X5859714D01*
X5834323D01*
Y5580331D01*
X5808931Y5554939D01*
X5935890D02*
X5961281Y5580331D01*
X6012065D01*
X6037457Y5554939D01*
Y5453372D01*
X6012065Y5427980D01*
X5961281D01*
X5935890Y5453372D01*
Y5554939D01*
X6088240D02*
X6113632Y5580331D01*
X6164416D01*
X6189808Y5554939D01*
Y5529547D01*
X6164416Y5504155D01*
X6139024D01*
X6164416D01*
X6189808Y5478763D01*
Y5453372D01*
X6164416Y5427980D01*
X6113632D01*
X6088240Y5453372D01*
%TF.MD5,4209a10f9c3a4ee3d66dff92324471d7*%
M02*
