%TF.GenerationSoftware,Altium Limited,Altium Designer,25.7.1 (20)*%
G04 Layer_Color=8388736*
%FSLAX45Y45*%
%MOMM*%
%TF.SameCoordinates,B76778C1-F52A-4F87-928D-11E91454DD13*%
%TF.FilePolarity,Negative*%
%TF.FileFunction,Soldermask,Top*%
%TF.Part,Single*%
G01*
G75*
%TA.AperFunction,SMDPad,CuDef*%
%ADD25R,1.00320X1.00320*%
%TA.AperFunction,ConnectorPad*%
%ADD26R,1.10320X1.00320*%
%TA.AperFunction,SMDPad,CuDef*%
%ADD27R,1.10320X1.00320*%
%ADD28R,1.00320X1.10320*%
%ADD29R,1.35320X0.80320*%
%TA.AperFunction,ComponentPad*%
%ADD30R,1.55320X1.55320*%
%ADD31C,1.55320*%
%ADD32C,4.01320*%
%TA.AperFunction,ViaPad*%
%ADD33C,1.05320*%
D25*
X5448300Y3765700D02*
D03*
Y3905700D02*
D03*
X5346699Y5143800D02*
D03*
Y5003800D02*
D03*
D26*
X5715000Y3758080D02*
D03*
Y3900320D02*
D03*
D27*
X5143500Y4832500D02*
D03*
Y4974740D02*
D03*
X4902200Y4827420D02*
D03*
Y4685180D02*
D03*
D28*
X4665980Y3029100D02*
D03*
X4808220D02*
D03*
D29*
X4065800Y4362600D02*
D03*
X4290800Y4457600D02*
D03*
Y4267600D02*
D03*
X4256300Y5137300D02*
D03*
X4481300Y5232300D02*
D03*
Y5042300D02*
D03*
D30*
X5421500Y4299100D02*
D03*
X5041900Y3714900D02*
D03*
D31*
X5246500Y4299100D02*
D03*
X4866900Y3714900D02*
D03*
D32*
X3695700Y3359300D02*
D03*
X4203700D02*
D03*
D33*
X4432300Y5600700D02*
D03*
X4508500Y4610100D02*
D03*
X5308600Y4800600D02*
D03*
X5854700Y3733800D02*
D03*
%TF.MD5,c8570b0234b4e12e48cbdbafe8dfc54a*%
M02*
