%TF.GenerationSoftware,Altium Limited,Altium Designer,26.4.1 (12)*%
G04 Layer_Color=8388736*
%FSLAX45Y45*%
%MOMM*%
%TF.SameCoordinates,A56CDDE0-368E-42AD-BDE5-9F32874F6D20*%
%TF.FilePolarity,Negative*%
%TF.FileFunction,Soldermask,Top*%
%TF.Part,Single*%
G01*
G75*
%TA.AperFunction,SMDPad,CuDef*%
%ADD23R,1.35320X0.80320*%
%ADD24R,0.80320X1.35320*%
%ADD25R,1.00320X1.00320*%
%ADD26R,1.10320X1.00320*%
%TA.AperFunction,ComponentPad*%
%ADD27C,4.01320*%
%ADD28R,1.55320X1.55320*%
%ADD29C,1.55320*%
%TA.AperFunction,ViaPad*%
%ADD30C,1.05320*%
D23*
X5179800Y7886700D02*
D03*
X4954800Y7791700D02*
D03*
Y7981700D02*
D03*
D24*
X5041900Y7317000D02*
D03*
X4946900Y7542000D02*
D03*
X5136900D02*
D03*
D25*
X6032500Y7715400D02*
D03*
X4445000Y7207400D02*
D03*
Y7067400D02*
D03*
X6032500Y7575400D02*
D03*
D26*
X4254500Y7208520D02*
D03*
Y7066280D02*
D03*
X5994400Y7028180D02*
D03*
Y7170420D02*
D03*
X5702300Y7040880D02*
D03*
Y7183120D02*
D03*
X4241800Y8122920D02*
D03*
Y7980680D02*
D03*
D27*
X4229100Y8724900D02*
D03*
X4737100D02*
D03*
D28*
X5638800Y7745600D02*
D03*
X4483100Y7570600D02*
D03*
D29*
X5638800D02*
D03*
X4483100Y7745600D02*
D03*
D30*
X4775200Y7797800D02*
D03*
X5346700Y8712200D02*
D03*
%TF.MD5,98838f1d269c038878febace2414564d*%
M02*
