%TF.GenerationSoftware,Altium Limited,Altium Designer,26.5.0 (11)*%
G04 Layer_Physical_Order=1*
G04 Layer_Color=255*
G04 Board_Origin=0|0*
%FSLAX45Y45*%
%MOMM*%
%TF.SameCoordinates,7179FE84-EDAF-4756-9F9C-B748D6E3FFB0*%
%TF.FilePolarity,Positive*%
%TF.FileFunction,Copper,L1,Top,Signal*%
%TF.Part,Single*%
G01*
G75*
%TA.AperFunction,SMDPad,CuDef*%
%ADD10R,1.15000X0.60000*%
%ADD11R,0.60000X1.15000*%
%ADD12R,0.80000X0.80000*%
%ADD13R,0.90000X0.80000*%
%TA.AperFunction,Conductor*%
%ADD14C,0.25400*%
%TA.AperFunction,ComponentPad*%
%ADD15R,1.35000X1.35000*%
%ADD16C,1.35000*%
%ADD17C,3.81000*%
%TA.AperFunction,ViaPad*%
%ADD18C,1.27000*%
G36*
X9690100Y8420100D02*
X7676160D01*
X7658297Y8438159D01*
X7683500Y10744200D01*
X7696200Y10756900D01*
X9690100D01*
Y8420100D01*
D02*
G37*
%LPC*%
G36*
X9004300Y10529047D02*
X8989434Y10526089D01*
X8985705Y10523598D01*
X8962064Y10528300D01*
X8919536D01*
X8877824Y10520003D01*
X8838533Y10503728D01*
X8803172Y10480100D01*
X8773100Y10450028D01*
X8749472Y10414667D01*
X8733197Y10375376D01*
X8724900Y10333664D01*
Y10291136D01*
X8733197Y10249424D01*
X8749472Y10210133D01*
X8773100Y10174772D01*
X8803172Y10144700D01*
X8838533Y10121072D01*
X8877824Y10104797D01*
X8919536Y10096500D01*
X8962064D01*
X8965453Y10093718D01*
Y9783440D01*
X8946600D01*
Y9774667D01*
X8414300D01*
Y9801220D01*
X8273500D01*
Y9774667D01*
X8058700D01*
Y9801220D01*
X7917900D01*
Y9684380D01*
X7917900Y9670420D01*
X7917900Y9645020D01*
Y9528180D01*
X7949453D01*
Y9304800D01*
X7922900D01*
Y9174000D01*
X7922900D01*
Y9164799D01*
X7922900D01*
Y9034000D01*
X7949454D01*
Y8805100D01*
X7822000D01*
Y8619300D01*
X8007800D01*
Y8626998D01*
X8032858Y8637862D01*
X8054042Y8625631D01*
X8077669Y8619300D01*
X8102131D01*
X8125758Y8625631D01*
X8146942Y8637862D01*
X8164238Y8655158D01*
X8176469Y8676342D01*
X8182800Y8699969D01*
Y8724431D01*
X8176469Y8748058D01*
X8164238Y8769242D01*
X8146942Y8786538D01*
X8128747Y8797044D01*
Y8992193D01*
X8168320Y9031767D01*
X8196650Y9024176D01*
X8197558Y9020786D01*
X8209262Y9000514D01*
X8225814Y8983962D01*
X8246086Y8972258D01*
X8268696Y8966200D01*
X8289263D01*
X8408900Y8846563D01*
Y8740001D01*
X8408900Y8740000D01*
X8408900D01*
X8405126Y8716163D01*
X8369763Y8680800D01*
X8313900D01*
Y8515000D01*
X8424700D01*
Y8625863D01*
X8465141Y8666303D01*
X8503900D01*
Y8610600D01*
X8559300D01*
X8614700D01*
Y8666303D01*
X8684552D01*
X8707300Y8659900D01*
X8707300Y8640903D01*
Y8617200D01*
X8790200D01*
X8873100D01*
Y8649405D01*
X8873100Y8659900D01*
X8876083Y8684065D01*
X8906900Y8714881D01*
X8932300Y8704360D01*
Y8644100D01*
X9098100D01*
Y8660653D01*
X9144580D01*
X9251502Y8553731D01*
X9264105Y8545311D01*
X9278971Y8542354D01*
X9405300D01*
X9420166Y8545311D01*
X9432769Y8553731D01*
X9472937Y8593900D01*
X9603800D01*
Y8779700D01*
X9563237D01*
X9436847Y8906090D01*
Y9034000D01*
X9463400D01*
Y9148600D01*
X9463400Y9164800D01*
X9463400Y9190200D01*
Y9304800D01*
X9424147D01*
Y9515480D01*
X9455700D01*
Y9632320D01*
X9455700Y9646280D01*
X9455700Y9671680D01*
Y9788520D01*
X9314900D01*
Y9761967D01*
X9087400D01*
Y9783440D01*
X9043147D01*
Y10121125D01*
X9078428Y10144700D01*
X9108500Y10174772D01*
X9132128Y10210133D01*
X9148403Y10249424D01*
X9156700Y10291136D01*
Y10333664D01*
X9148403Y10375376D01*
X9132128Y10414667D01*
X9108500Y10450028D01*
X9078428Y10480100D01*
X9043067Y10503728D01*
X9040221Y10504907D01*
X9040189Y10505066D01*
X9031769Y10517669D01*
X9019166Y10526089D01*
X9004300Y10529047D01*
D02*
G37*
G36*
X8454064Y10528300D02*
X8445500D01*
Y10325100D01*
X8648700D01*
Y10333664D01*
X8640403Y10375376D01*
X8624128Y10414667D01*
X8600500Y10450028D01*
X8570428Y10480100D01*
X8535067Y10503728D01*
X8495776Y10520003D01*
X8454064Y10528300D01*
D02*
G37*
G36*
X8420100D02*
X8411536D01*
X8369824Y10520003D01*
X8330533Y10503728D01*
X8295172Y10480100D01*
X8265100Y10450028D01*
X8241472Y10414667D01*
X8225197Y10375376D01*
X8216900Y10333664D01*
Y10325100D01*
X8420100D01*
Y10528300D01*
D02*
G37*
G36*
X8648700Y10299700D02*
X8445500D01*
Y10096500D01*
X8454064D01*
X8495776Y10104797D01*
X8535067Y10121072D01*
X8570428Y10144700D01*
X8600500Y10174772D01*
X8624128Y10210133D01*
X8640403Y10249424D01*
X8648700Y10291136D01*
Y10299700D01*
D02*
G37*
G36*
X8420100D02*
X8216900D01*
Y10291136D01*
X8225197Y10249424D01*
X8241472Y10210133D01*
X8265100Y10174772D01*
X8295172Y10144700D01*
X8330533Y10121072D01*
X8369824Y10104797D01*
X8411536Y10096500D01*
X8420100D01*
Y10299700D01*
D02*
G37*
G36*
X8873100Y8591800D02*
X8802900D01*
Y8549100D01*
X8873100D01*
Y8591800D01*
D02*
G37*
G36*
X8777500D02*
X8707300D01*
Y8549100D01*
X8777500D01*
Y8591800D01*
D02*
G37*
G36*
X8614700Y8585200D02*
X8572000D01*
Y8515000D01*
X8614700D01*
Y8585200D01*
D02*
G37*
G36*
X8546600D02*
X8503900D01*
Y8515000D01*
X8546600D01*
Y8585200D01*
D02*
G37*
%LPD*%
G36*
X8273500Y9679013D02*
Y9670420D01*
X8273500Y9645020D01*
Y9583117D01*
X8062431Y9372049D01*
X8054011Y9359446D01*
X8052547Y9352086D01*
X8027147Y9354588D01*
Y9528180D01*
X8058700D01*
Y9645020D01*
X8058700Y9658980D01*
X8058700Y9679013D01*
X8076661Y9696973D01*
X8255539D01*
X8273500Y9679013D01*
D02*
G37*
G36*
X8946600Y9679013D02*
X8946600Y9652640D01*
X8946600Y9627240D01*
Y9510400D01*
X8978153D01*
Y9096000D01*
X8981111Y9081134D01*
X8989531Y9068532D01*
X9228150Y8829913D01*
X9218430Y8806446D01*
X8904681D01*
X8898500Y8805217D01*
X8877283Y8818020D01*
X8873100Y8822869D01*
Y8849900D01*
X8707300D01*
Y8849900D01*
X8682580Y8851541D01*
X8349953Y9184169D01*
X8337350Y9192589D01*
X8322484Y9195547D01*
X8238316D01*
X8223450Y9192589D01*
X8210847Y9184169D01*
X8152213Y9125534D01*
X8128747Y9135255D01*
Y9328489D01*
X8328437Y9528180D01*
X8414300D01*
Y9645020D01*
X8414300Y9658980D01*
X8414300Y9679013D01*
X8432261Y9696973D01*
X8928639D01*
X8946600Y9679013D01*
D02*
G37*
G36*
X9314900Y9666313D02*
Y9657720D01*
X9314900Y9632320D01*
Y9515480D01*
X9346453D01*
Y9304800D01*
X9332600D01*
Y9190200D01*
X9332600Y9174000D01*
X9332600Y9148600D01*
Y9034000D01*
X9359154D01*
Y8890000D01*
X9362111Y8875134D01*
X9370532Y8862531D01*
X9429896Y8803167D01*
X9428838Y8800611D01*
X9418413Y8780498D01*
X9393957Y8773980D01*
X9055847Y9112091D01*
Y9510400D01*
X9087400D01*
Y9627240D01*
X9087400Y9641200D01*
X9087400Y9658873D01*
X9105479Y9684273D01*
X9296939D01*
X9314900Y9666313D01*
D02*
G37*
D10*
X9015200Y8699500D02*
D03*
X8790200Y8604500D02*
D03*
Y8794500D02*
D03*
D11*
X8464300Y8822900D02*
D03*
X8559300Y8597900D02*
D03*
X8369300D02*
D03*
D12*
X7988300Y9099400D02*
D03*
Y9239400D02*
D03*
X9398000Y9099400D02*
D03*
Y9239400D02*
D03*
D13*
X7988300Y9735820D02*
D03*
Y9593580D02*
D03*
X8343900Y9735820D02*
D03*
Y9593580D02*
D03*
X9017000Y9718040D02*
D03*
Y9575800D02*
D03*
X9385300Y9723120D02*
D03*
Y9580880D02*
D03*
D14*
X8089900Y8712200D02*
Y9008284D01*
X8238316Y9156700D01*
X8322484D01*
X8684684Y8794500D01*
X8790200D01*
X8089900Y9008284D02*
Y9344580D01*
X8369300Y8625400D02*
X8449050Y8705150D01*
X8842231D01*
X8369300Y8597900D02*
Y8625400D01*
X8842231Y8705150D02*
X8904681Y8767600D01*
X9255100D01*
X9335900Y8686800D01*
X9015200Y8699500D02*
X9160671D01*
X9278971Y8581200D01*
X7721600Y9608002D02*
X8425998Y10312400D01*
X8558000Y8532600D02*
Y8604500D01*
X8496300Y8470900D02*
X8558000Y8532600D01*
X7736479Y8470900D02*
X8496300D01*
X7721600Y8485779D02*
X7736479Y8470900D01*
X7721600Y8485779D02*
Y9608002D01*
X8425998Y10312400D02*
X8432800D01*
X8280400Y9030000D02*
Y9055100D01*
X8458200Y8824700D02*
Y8852200D01*
X8280400Y9030000D02*
X8458200Y8852200D01*
X9405300Y8581200D02*
X9510900Y8686800D01*
X9278971Y8581200D02*
X9405300D01*
X9017000Y9096000D02*
X9397929Y8715071D01*
X8558000Y8604500D02*
X8790200D01*
X9004300Y9730740D02*
X9017000Y9718040D01*
X9004300Y9730740D02*
Y10490200D01*
X9022080Y9723120D02*
X9385300D01*
X9017000Y9718040D02*
X9022080Y9723120D01*
X8999220Y9735820D02*
X9017000Y9718040D01*
X8343900Y9735820D02*
X8999220D01*
X7988300D02*
X8343900D01*
X8338900Y9593580D02*
X8343900D01*
X8089900Y9344580D02*
X8338900Y9593580D01*
X9017000Y9096000D02*
Y9575800D01*
X9398000Y8890000D02*
X9556050Y8731950D01*
X9398000Y8890000D02*
Y9099400D01*
X7914900Y8712200D02*
X7988300Y8785600D01*
Y9099400D01*
X7988300Y9239400D02*
X7988300Y9239400D01*
X7988300Y9239400D02*
Y9593580D01*
X9385300Y9252100D02*
X9398000Y9239400D01*
X9385300Y9252100D02*
Y9580880D01*
D15*
X9510900Y8686800D02*
D03*
X7914900Y8712200D02*
D03*
D16*
X9335900Y8686800D02*
D03*
X8089900Y8712200D02*
D03*
D17*
X8940800Y10312400D02*
D03*
X8432800D02*
D03*
D18*
X8280400Y9055100D02*
D03*
%TF.MD5,966791bb74d63ac7e192e7d9c4e750bf*%
M02*
