%TF.GenerationSoftware,Altium Limited,Altium Designer,26.5.0 (11)*%
G04 Layer_Color=8388736*
G04 Board_Origin=0|0*
%FSLAX45Y45*%
%MOMM*%
%TF.SameCoordinates,7179FE84-EDAF-4756-9F9C-B748D6E3FFB0*%
%TF.FilePolarity,Negative*%
%TF.FileFunction,Soldermask,Top*%
%TF.Part,Single*%
G01*
G75*
%TA.AperFunction,SMDPad,CuDef*%
%ADD24R,1.35320X0.80320*%
%ADD25R,0.80320X1.35320*%
%ADD26R,1.00320X1.00320*%
%ADD27R,1.10320X1.00320*%
%TA.AperFunction,ComponentPad*%
%ADD28R,1.55320X1.55320*%
%ADD29C,1.55320*%
%ADD30C,4.01320*%
%TA.AperFunction,ViaPad*%
%ADD31C,1.47320*%
D24*
X9015200Y8699500D02*
D03*
X8790200Y8604500D02*
D03*
Y8794500D02*
D03*
D25*
X8464300Y8822900D02*
D03*
X8559300Y8597900D02*
D03*
X8369300D02*
D03*
D26*
X7988300Y9099400D02*
D03*
Y9239400D02*
D03*
X9398000Y9099400D02*
D03*
Y9239400D02*
D03*
D27*
X7988300Y9735820D02*
D03*
Y9593580D02*
D03*
X8343900Y9735820D02*
D03*
Y9593580D02*
D03*
X9017000Y9718040D02*
D03*
Y9575800D02*
D03*
X9385300Y9723120D02*
D03*
Y9580880D02*
D03*
D28*
X9510900Y8686800D02*
D03*
X7914900Y8712200D02*
D03*
D29*
X9335900Y8686800D02*
D03*
X8089900Y8712200D02*
D03*
D30*
X8940800Y10312400D02*
D03*
X8432800D02*
D03*
D31*
X8280400Y9055100D02*
D03*
%TF.MD5,b52f9c504f2c089672505303e9e8a868*%
M02*
