%TF.GenerationSoftware,Altium Limited,Altium Designer,26.5.0 (11)*%
G04 Layer_Color=255*
G04 Board_Origin=0|0*
%FSLAX45Y45*%
%MOMM*%
%TF.SameCoordinates,7179FE84-EDAF-4756-9F9C-B748D6E3FFB0*%
%TF.FilePolarity,Positive*%
%TF.FileFunction,Pads,Top*%
%TF.Part,Single*%
G01*
G75*
%TA.AperFunction,SMDPad,CuDef*%
%ADD10R,1.15000X0.60000*%
%ADD11R,0.60000X1.15000*%
%ADD12R,0.80000X0.80000*%
%ADD13R,0.90000X0.80000*%
%TA.AperFunction,ComponentPad*%
%ADD15R,1.35000X1.35000*%
%ADD16C,1.35000*%
%ADD17C,3.81000*%
D10*
X9015200Y8699500D02*
D03*
X8790200Y8604500D02*
D03*
Y8794500D02*
D03*
D11*
X8464300Y8822900D02*
D03*
X8559300Y8597900D02*
D03*
X8369300D02*
D03*
D12*
X7988300Y9099400D02*
D03*
Y9239400D02*
D03*
X9398000Y9099400D02*
D03*
Y9239400D02*
D03*
D13*
X7988300Y9735820D02*
D03*
Y9593580D02*
D03*
X8343900Y9735820D02*
D03*
Y9593580D02*
D03*
X9017000Y9718040D02*
D03*
Y9575800D02*
D03*
X9385300Y9723120D02*
D03*
Y9580880D02*
D03*
D15*
X9510900Y8686800D02*
D03*
X7914900Y8712200D02*
D03*
D16*
X9335900Y8686800D02*
D03*
X8089900Y8712200D02*
D03*
D17*
X8940800Y10312400D02*
D03*
X8432800D02*
D03*
%TF.MD5,4894e876520901514f0d93658a8d4716*%
M02*
