%TF.GenerationSoftware,Altium Limited,Altium Designer,26.5.0 (11)*%
G04 Layer_Color=16711935*
G04 Board_Origin=0|0*
%FSLAX45Y45*%
%MOMM*%
%TF.SameCoordinates,7179FE84-EDAF-4756-9F9C-B748D6E3FFB0*%
%TF.FilePolarity,Positive*%
%TF.FileFunction,Other,Mechanical_13*%
%TF.Part,Single*%
G01*
G75*
%TA.AperFunction,NonConductor*%
%ADD21C,0.10000*%
D21*
X8759825Y8549500D02*
X9045575D01*
X8759825Y8849500D02*
X9045575D01*
Y8549500D02*
Y8849500D01*
X8759825Y8549500D02*
Y8849500D01*
X8614300Y8567525D02*
Y8853275D01*
X8314300Y8567525D02*
Y8853275D01*
X8614300D01*
X8314300Y8567525D02*
X8614300D01*
X7940800Y9081900D02*
Y9256900D01*
X8035800Y9081900D02*
Y9256900D01*
X7940800Y9081900D02*
X8035800D01*
X7940800Y9256900D02*
X8035800D01*
X9350500Y9081900D02*
Y9256900D01*
X9445500Y9081900D02*
Y9256900D01*
X9350500Y9081900D02*
X9445500D01*
X9350500Y9256900D02*
X9445500D01*
X7940800Y9752200D02*
X8035800D01*
X7940800Y9577200D02*
X8035800D01*
Y9752200D01*
X7940800Y9577200D02*
Y9752200D01*
X8296400D02*
X8391400D01*
X8296400Y9577200D02*
X8391400D01*
Y9752200D01*
X8296400Y9577200D02*
Y9752200D01*
X8969500Y9734420D02*
X9064500D01*
X8969500Y9559420D02*
X9064500D01*
Y9734420D01*
X8969500Y9559420D02*
Y9734420D01*
X9337800Y9739500D02*
X9432800D01*
X9337800Y9564500D02*
X9432800D01*
Y9739500D01*
X9337800Y9564500D02*
Y9739500D01*
%TF.MD5,1ba05d0b01186df97a1a8b9a03f8c501*%
M02*
