%TF.GenerationSoftware,Altium Limited,Altium Designer,26.5.0 (11)*%
G04 Layer_Physical_Order=2*
G04 Layer_Color=16711680*
G04 Board_Origin=0|0*
%FSLAX45Y45*%
%MOMM*%
%TF.SameCoordinates,7179FE84-EDAF-4756-9F9C-B748D6E3FFB0*%
%TF.FilePolarity,Positive*%
%TF.FileFunction,Copper,L2,Bot,Signal*%
%TF.Part,Single*%
G01*
G75*
%TA.AperFunction,Conductor*%
%ADD14C,0.25400*%
%TA.AperFunction,ComponentPad*%
%ADD15R,1.35000X1.35000*%
%ADD16C,1.35000*%
%ADD17C,3.81000*%
%TA.AperFunction,ViaPad*%
%ADD18C,1.27000*%
G36*
X9690100Y10731500D02*
Y8394700D01*
X7665516D01*
X7645441Y8414856D01*
X7658100Y10744200D01*
X9684839D01*
X9690100Y10731500D01*
D02*
G37*
%LPC*%
G36*
X8454064Y10528300D02*
X8445500D01*
Y10325100D01*
X8648700D01*
Y10333664D01*
X8640403Y10375376D01*
X8624128Y10414667D01*
X8600500Y10450028D01*
X8570428Y10480100D01*
X8535067Y10503728D01*
X8495776Y10520003D01*
X8454064Y10528300D01*
D02*
G37*
G36*
X8420100D02*
X8411536D01*
X8369824Y10520003D01*
X8330533Y10503728D01*
X8295172Y10480100D01*
X8265100Y10450028D01*
X8241472Y10414667D01*
X8225197Y10375376D01*
X8216900Y10333664D01*
Y10325100D01*
X8420100D01*
Y10528300D01*
D02*
G37*
G36*
X8962064D02*
X8919536D01*
X8877824Y10520003D01*
X8838533Y10503728D01*
X8803172Y10480100D01*
X8773100Y10450028D01*
X8749472Y10414667D01*
X8733197Y10375376D01*
X8724900Y10333664D01*
Y10291136D01*
X8733197Y10249424D01*
X8749472Y10210133D01*
X8773100Y10174772D01*
X8803172Y10144700D01*
X8838533Y10121072D01*
X8877824Y10104797D01*
X8919536Y10096500D01*
X8962064D01*
X9003776Y10104797D01*
X9043067Y10121072D01*
X9078428Y10144700D01*
X9108500Y10174772D01*
X9132128Y10210133D01*
X9148403Y10249424D01*
X9156700Y10291136D01*
Y10333664D01*
X9148403Y10375376D01*
X9132128Y10414667D01*
X9108500Y10450028D01*
X9078428Y10480100D01*
X9043067Y10503728D01*
X9003776Y10520003D01*
X8962064Y10528300D01*
D02*
G37*
G36*
X8648700Y10299700D02*
X8445500D01*
Y10096500D01*
X8454064D01*
X8495776Y10104797D01*
X8535067Y10121072D01*
X8570428Y10144700D01*
X8600500Y10174772D01*
X8624128Y10210133D01*
X8640403Y10249424D01*
X8648700Y10291136D01*
Y10299700D01*
D02*
G37*
G36*
X8420100D02*
X8216900D01*
Y10291136D01*
X8225197Y10249424D01*
X8241472Y10210133D01*
X8265100Y10174772D01*
X8295172Y10144700D01*
X8330533Y10121072D01*
X8369824Y10104797D01*
X8411536Y10096500D01*
X8420100D01*
Y10299700D01*
D02*
G37*
G36*
X8292104Y9144000D02*
X8268696D01*
X8246086Y9137942D01*
X8225814Y9126238D01*
X8209262Y9109686D01*
X8197558Y9089414D01*
X8191500Y9066804D01*
Y9043737D01*
X7952863Y8805100D01*
X7822000D01*
Y8619300D01*
X8007800D01*
Y8626998D01*
X8032858Y8637862D01*
X8054042Y8625631D01*
X8077669Y8619300D01*
X8102131D01*
X8125758Y8625631D01*
X8146942Y8637862D01*
X8164238Y8655158D01*
X8176469Y8676342D01*
X8182800Y8699969D01*
Y8724431D01*
X8176469Y8748058D01*
X8164238Y8769242D01*
X8146942Y8786538D01*
X8125758Y8798769D01*
X8102131Y8805100D01*
X8098658D01*
X8088137Y8830500D01*
X8235822Y8978184D01*
X8246086Y8972258D01*
X8268696Y8966200D01*
X8292104D01*
X8314714Y8972258D01*
X8334986Y8983962D01*
X8351538Y9000514D01*
X8363242Y9020786D01*
X8369300Y9043396D01*
Y9066804D01*
X8363242Y9089414D01*
X8351538Y9109686D01*
X8334986Y9126238D01*
X8314714Y9137942D01*
X8292104Y9144000D01*
D02*
G37*
G36*
X9603800Y8779700D02*
X9418000D01*
Y8772002D01*
X9392942Y8761138D01*
X9371758Y8773369D01*
X9348131Y8779700D01*
X9323669D01*
X9300042Y8773369D01*
X9278858Y8761138D01*
X9261562Y8743842D01*
X9249331Y8722658D01*
X9243000Y8699031D01*
Y8674569D01*
X9249331Y8650942D01*
X9261562Y8629758D01*
X9278858Y8612462D01*
X9300042Y8600231D01*
X9323669Y8593900D01*
X9348131D01*
X9371758Y8600231D01*
X9392942Y8612462D01*
X9418000Y8601598D01*
Y8593900D01*
X9603800D01*
Y8779700D01*
D02*
G37*
%LPD*%
D14*
X8257800Y9055100D02*
X8280400D01*
X7914900Y8712200D02*
X8257800Y9055100D01*
D15*
X9510900Y8686800D02*
D03*
X7914900Y8712200D02*
D03*
D16*
X9335900Y8686800D02*
D03*
X8089900Y8712200D02*
D03*
D17*
X8940800Y10312400D02*
D03*
X8432800D02*
D03*
D18*
X8280400Y9055100D02*
D03*
%TF.MD5,cc323ede42ca0b69da6f4b52fdda9de6*%
M02*
