%TF.GenerationSoftware,Altium Limited,Altium Designer,26.5.0 (11)*%
G04 Layer_Color=8388736*
G04 Board_Origin=0|0*
%FSLAX45Y45*%
%MOMM*%
%TF.SameCoordinates,52764D14-987A-4CC4-B34A-212BB1CC0A02*%
%TF.FilePolarity,Negative*%
%TF.FileFunction,Soldermask,Top*%
%TF.Part,Single*%
G01*
G75*
%TA.AperFunction,SMDPad,CuDef*%
%ADD23R,1.10320X1.00320*%
%ADD24R,1.00320X1.00320*%
%ADD25R,1.35320X0.80320*%
%ADD26R,0.80320X1.35320*%
%TA.AperFunction,ComponentPad*%
%ADD27C,4.01320*%
%ADD28R,1.55320X1.55320*%
%ADD29C,1.55320*%
%TA.AperFunction,ViaPad*%
%ADD30C,1.47320*%
D23*
X14503400Y5549900D02*
D03*
Y5407660D02*
D03*
X14033501Y5557520D02*
D03*
Y5415280D02*
D03*
X13792200Y5557520D02*
D03*
Y5415280D02*
D03*
X14986000Y5557520D02*
D03*
Y5415280D02*
D03*
D24*
X14986000Y5010000D02*
D03*
Y5150000D02*
D03*
X14033501Y4946500D02*
D03*
Y5086500D02*
D03*
D25*
X14340100Y3784600D02*
D03*
X14565100Y3879600D02*
D03*
Y3689600D02*
D03*
D26*
X13931900Y3507000D02*
D03*
X13836900Y3732000D02*
D03*
X14026900D02*
D03*
D27*
X14147800Y6235700D02*
D03*
X14655800D02*
D03*
D28*
X14032100Y4254500D02*
D03*
X14730600D02*
D03*
D29*
X13857100D02*
D03*
X14555600D02*
D03*
D30*
X14198599Y3543300D02*
D03*
X15085422Y6235700D02*
D03*
%TF.MD5,f6297a6fc112aa3e4cbe3524293add0b*%
M02*
