%TF.GenerationSoftware,Altium Limited,Altium Designer,26.5.0 (11)*%
G04 Layer_Physical_Order=1*
G04 Layer_Color=255*
G04 Board_Origin=0|0*
%FSLAX45Y45*%
%MOMM*%
%TF.SameCoordinates,52764D14-987A-4CC4-B34A-212BB1CC0A02*%
%TF.FilePolarity,Positive*%
%TF.FileFunction,Copper,L1,Top,Signal*%
%TF.Part,Single*%
G01*
G75*
%TA.AperFunction,SMDPad,CuDef*%
%ADD10R,0.90000X0.80000*%
%ADD11R,0.80000X0.80000*%
%ADD12R,1.15000X0.60000*%
%ADD13R,0.60000X1.15000*%
%TA.AperFunction,Conductor*%
%ADD14C,0.25400*%
%TA.AperFunction,ComponentPad*%
%ADD15C,3.81000*%
%ADD16R,1.35000X1.35000*%
%ADD17C,1.35000*%
%TA.AperFunction,ViaPad*%
%ADD18C,1.27000*%
D10*
X14503400Y5549900D02*
D03*
Y5407660D02*
D03*
X14033501Y5557520D02*
D03*
Y5415280D02*
D03*
X13792200Y5557520D02*
D03*
Y5415280D02*
D03*
X14986000Y5557520D02*
D03*
Y5415280D02*
D03*
D11*
X14986000Y5010000D02*
D03*
Y5150000D02*
D03*
X14033501Y4946500D02*
D03*
Y5086500D02*
D03*
D12*
X14340100Y3784600D02*
D03*
X14565100Y3879600D02*
D03*
Y3689600D02*
D03*
D13*
X13931900Y3507000D02*
D03*
X13836900Y3732000D02*
D03*
X14026900D02*
D03*
D14*
X14833600Y3644900D02*
Y3796800D01*
X14198599Y3543300D02*
X14732001D01*
X14074219D02*
X14198599D01*
X14732001D02*
X14833600Y3644900D01*
X13890121Y3727397D02*
X14074219Y3543300D01*
X14750800Y3879600D02*
X14833600Y3796800D01*
X14565100Y3879600D02*
X14750800D01*
X14439900Y3863418D02*
Y4138800D01*
X14555600Y4254500D01*
X14439900Y3863418D02*
X14560497Y3742821D01*
Y3694202D02*
X14565100Y3689600D01*
X14560497Y3694202D02*
Y3742821D01*
X14340100Y3784600D02*
Y4125700D01*
X14211301Y4254500D02*
X14340100Y4125700D01*
X14032100Y4254500D02*
X14211301D01*
X13857100D02*
Y4672200D01*
X14026900Y3732000D02*
Y4070818D01*
X13857100Y4240618D02*
Y4254500D01*
Y4240618D02*
X14026900Y4070818D01*
X14682823Y3390900D02*
X14909801Y3617877D01*
X13944540Y3429059D02*
X13982700Y3390900D01*
X14682823D01*
X13931900Y3507000D02*
X13944540Y3494359D01*
Y3429059D02*
Y3494359D01*
X14033501Y5086500D02*
Y5415280D01*
X14033501Y5415280D02*
X14033501Y5415280D01*
X13841502Y3727397D02*
X13890121D01*
X13836900Y3732000D02*
X13841502Y3727397D01*
X14730600Y4116200D02*
Y4254500D01*
Y4116200D02*
X14909801Y3937000D01*
Y3617877D02*
Y3937000D01*
X14655800Y6235700D02*
X15085422D01*
X14033501Y5557520D02*
X14986000D01*
X14730600Y4557900D02*
X14986000Y4813300D01*
Y5010000D01*
X14730600Y4254500D02*
Y4557900D01*
X14503400Y5130800D02*
X14555600Y5078600D01*
X14503400Y5130800D02*
Y5407660D01*
X14555600Y4254500D02*
Y5078600D01*
X13792200Y4737100D02*
Y5415280D01*
Y4737100D02*
X13857100Y4672200D01*
X14032100Y4254500D02*
X14033501Y4255900D01*
Y4946500D01*
X14986000Y5150000D02*
X14986000Y5150000D01*
X14986000Y5150000D02*
Y5415280D01*
X13792200Y5557520D02*
X14033501D01*
X14122400Y5564779D02*
Y6210300D01*
X14147800Y6235700D01*
D15*
D03*
X14655800D02*
D03*
D16*
X14032100Y4254500D02*
D03*
X14730600D02*
D03*
D17*
X13857100D02*
D03*
X14555600D02*
D03*
D18*
X14198599Y3543300D02*
D03*
X15085422Y6235700D02*
D03*
%TF.MD5,62644a47195fbca6f393b33dc9289f38*%
M02*
